<?xml version="1.0" encoding="UTF-8" standalone="no"?>
<svg width="1060px" height="862px" viewBox="0 0 1060 862" version="1.1" xmlns="http://www.w3.org/2000/svg" xmlns:xlink="http://www.w3.org/1999/xlink" style="background: #FFFFFF;">
    <!-- Generator: Sketch 40.3 (33839) - http://www.bohemiancoding.com/sketch -->
    <title>Artboard 2</title>
    <desc>Created with Sketch.</desc>
    <defs></defs>
    <g id="Page-1" stroke="none" stroke-width="1" fill="none" fill-rule="evenodd">
        <g id="Artboard-2">
            <g id="HtmlToSvg" transform="translate(-68.000000, 0.000000)">
                <g id="Created-by-HiQPdf">
                    <g id="Group">
                        <g transform="translate(220.000000, 88.000000)" id="Shape" fill="#F5F5F5">
                            <path d="M3,0 L777,0 C778.657,0 780,1.3431 780,3 L780,169 C780,170.657 778.657,172 777,172 L3,172 C1.343,172 0,170.657 0,169 L0,3 C0,1.3431 1.343,0 3,0"></path>
                        </g>
                        <g transform="translate(220.000000, 272.000000)" id="Shape" fill="#F5F5F5">
                            <path d="M381,0 C382.657,0 384,1.343 384,3 L384,212 C384,213.657 382.657,215 381,215 L3,215 C1.343,215 0,213.657 0,212 L0,3 C0,1.343 1.343,0 3,0 L381,0 Z"></path>
                        </g>
                        <g transform="translate(220.000000, 499.000000)" id="Shape" fill="#F5F5F5">
                            <path d="M3,0 L381,0 C382.657,0 384,1.343 384,3 L384,253 C384,254.657 382.657,256 381,256 L3,256 C1.343,256 0,254.657 0,253 L0,3 C0,1.343 1.343,0 3,0"></path>
                        </g>
                        <g transform="translate(616.000000, 272.000000)" id="Shape" fill="#F5F5F5">
                            <path d="M3,0 L381,0 C382.657,0 384,1.343 384,3 L384,576 C384,577.657 382.657,579 381,579 L3,579 C1.343,579 0,577.657 0,576 L0,3 C0,1.343 1.343,0 3,0"></path>
                        </g>
                        <g transform="translate(391.000000, 135.000000)" id="Shape" fill-opacity="0.0392157" fill="#000000">
                            <polyline points="0 0 134 0 134 107 0 107 0 0"></polyline>
                        </g>
                        <g transform="translate(384.000000, 127.000000)" id="Shape" fill="#FFFFFF">
                            <path d="M3,0 L145,0 C146.657,0 148,1.343 148,3 L148,118 C148,119.657 146.657,121 145,121 L3,121 C1.343,121 0,119.657 0,118 L0,3 C0,1.343 1.343,0 3,0"></path>
                        </g>
                        <g transform="translate(543.000000, 135.000000)" id="Shape" fill-opacity="0.0392157" fill="#000000">
                            <polyline points="0 0 134 0 134 107 0 107 0 0"></polyline>
                        </g>
                        <g transform="translate(536.000000, 127.000000)" id="Shape" fill="#FFFFFF">
                            <path d="M3,0 L145,0 C146.657,0 148,1.343 148,3 L148,118 C148,119.657 146.657,121 145,121 L3,121 C1.343,121 0,119.657 0,118 L0,3 C0,1.343 1.343,0 3,0"></path>
                        </g>
                        <g transform="translate(695.000000, 135.000000)" id="Shape" fill-opacity="0.0392157" fill="#000000">
                            <polyline points="0 0 134 0 134 107 0 107 0 0"></polyline>
                        </g>
                        <g transform="translate(688.000000, 127.000000)" id="Shape" fill="#FFFFFF">
                            <path d="M3,0 L145,0 C146.657,0 148,1.343 148,3 L148,118 C148,119.657 146.657,121 145,121 L3,121 C1.343,121 0,119.657 0,118 L0,3 C0,1.343 1.343,0 3,0"></path>
                        </g>
                        <g transform="translate(847.000000, 135.000000)" id="Shape" fill-opacity="0.0392157" fill="#000000">
                            <polyline points="0 0 134 0 134 107 0 107 0 0"></polyline>
                        </g>
                        <g transform="translate(840.000000, 127.000000)" id="Shape" fill="#FFFFFF">
                            <path d="M3,0 L145,0 C146.657,0 148,1.343 148,3 L148,118 C148,119.657 146.657,121 145,121 L3,121 C1.343,121 0,119.657 0,118 L0,3 C0,1.343 1.343,0 3,0"></path>
                        </g>
                        <g transform="translate(239.000000, 546.000000)" id="Shape" fill-opacity="0.0392157" fill="#000000">
                            <polyline points="0 0 346 0 346 23 0 23 0 0"></polyline>
                        </g>
                        <g transform="translate(232.000000, 538.000000)" id="Shape" fill="#FFFFFF">
                            <path d="M3,0 L357,0 C358.657,0 360,1.343 360,3 L360,34 C360,35.657 358.657,37 357,37 L3,37 C1.343,37 0,35.657 0,34 L0,3 C0,1.343 1.343,0 3,0"></path>
                        </g>
                        <g transform="translate(232.000000, 393.000000)" id="Shape" fill="#FFFFFF">
                            <path d="M3,0 L357,0 C358.657,0 360,1.343 360,3 L360,34 C360,35.657 358.657,37 357,37 L3,37 C1.343,37 0,35.657 0,34 L0,3 C0,1.343 1.343,0 3,0"></path>
                        </g>
                        <g transform="translate(239.000000, 587.000000)" id="Shape" fill-opacity="0.0392157" fill="#000000">
                            <polyline points="0 0 346 0 346 23 0 23 0 0"></polyline>
                        </g>
                        <g transform="translate(232.000000, 579.000000)" id="Shape" fill="#FFFFFF">
                            <path d="M3,0 L357,0 C358.657,0 360,1.343 360,3 L360,34 C360,35.657 358.657,37 357,37 L3,37 C1.343,37 0,35.657 0,34 L0,3 C0,1.343 1.343,0 3,0"></path>
                        </g>
                        <g transform="translate(239.000000, 628.000000)" id="Shape" fill-opacity="0.0392157" fill="#000000">
                            <polyline points="0 0 346 0 346 23 0 23 0 0"></polyline>
                        </g>
                        <g transform="translate(232.000000, 620.000000)" id="Shape" fill="#FFFFFF">
                            <path d="M3,0 L357,0 C358.657,0 360,1.343 360,3 L360,34 C360,35.657 358.657,37 357,37 L3,37 C1.343,37 0,35.657 0,34 L0,3 C0,1.343 1.343,0 3,0"></path>
                        </g>
                        <g transform="translate(239.000000, 669.000000)" id="Shape" fill-opacity="0.0392157" fill="#000000">
                            <polyline points="0 0 346 0 346 23 0 23 0 0"></polyline>
                        </g>
                        <g transform="translate(232.000000, 661.000000)" id="Shape" fill="#FFFFFF">
                            <path d="M3,0 L357,0 C358.657,0 360,1.343 360,3 L360,34 C360,35.657 358.657,37 357,37 L3,37 C1.343,37 0,35.657 0,34 L0,3 C0,1.343 1.343,0 3,0"></path>
                        </g>
                        <g transform="translate(239.000000, 710.000000)" id="Shape" fill-opacity="0.0392157" fill="#000000">
                            <polyline points="0 0 346 0 346 23 0 23 0 0"></polyline>
                        </g>
                        <g transform="translate(232.000000, 702.000000)" id="Shape" fill="#FFFFFF">
                            <path d="M3,0 L357,0 C358.657,0 360,1.343 360,3 L360,34 C360,35.657 358.657,37 357,37 L3,37 C1.343,37 0,35.657 0,34 L0,3 C0,1.343 1.343,0 3,0"></path>
                        </g>
                        <g transform="translate(635.000000, 319.000000)" id="Shape" fill-opacity="0.0392157" fill="#000000">
                            <polyline points="0 0 346 0 346 114 0 114 0 0"></polyline>
                        </g>
                        <g transform="translate(628.000000, 311.000000)" id="Shape" fill="#FFFFFF">
                            <path d="M3,0 L357,0 C358.657,0 360,1.343 360,3 L360,125 C360,126.657 358.657,128 357,128 L3,128 C1.343,128 0,126.657 0,125 L0,3 C0,1.343 1.343,0 3,0"></path>
                        </g>
                        <g transform="translate(635.000000, 451.000000)" id="Shape" fill-opacity="0.0392157" fill="#000000">
                            <polyline points="0 0 346 0 346 114 0 114 0 0"></polyline>
                        </g>
                        <g transform="translate(628.000000, 443.000000)" id="Shape" fill="#FFFFFF">
                            <path d="M3,0 L357,0 C358.657,0 360,1.343 360,3 L360,125 C360,126.657 358.657,128 357,128 L3,128 C1.343,128 0,126.657 0,125 L0,3 C0,1.343 1.343,0 3,0"></path>
                        </g>
                        <g transform="translate(635.000000, 583.000000)" id="Shape" fill-opacity="0.0392157" fill="#000000">
                            <polyline points="0 0 346 0 346 114 0 114 0 0"></polyline>
                        </g>
                        <g transform="translate(628.000000, 575.000000)" id="Shape" fill="#FFFFFF">
                            <path d="M3,0 L357,0 C358.657,0 360,1.343 360,3 L360,125 C360,126.657 358.657,128 357,128 L3,128 C1.343,128 0,126.657 0,125 L0,3 C0,1.343 1.343,0 3,0"></path>
                        </g>
                        <g transform="translate(635.000000, 715.000000)" id="Shape" fill-opacity="0.0392157" fill="#000000">
                            <polyline points="0 0 346 0 346 114 0 114 0 0"></polyline>
                        </g>
                        <g transform="translate(628.000000, 707.000000)" id="Shape" fill="#FFFFFF">
                            <path d="M3,0 L357,0 C358.657,0 360,1.343 360,3 L360,125 C360,126.657 358.657,128 357,128 L3,128 C1.343,128 0,126.657 0,125 L0,3 C0,1.343 1.343,0 3,0"></path>
                        </g>
                        <g transform="translate(273.000000, 159.000000)" id=".com" fill="#B3B3B3">
                            <path d="M0.095,13.96 C0.095,13.6499984 0.152499425,13.3550014 0.2675,13.075 C0.382500575,12.7949986 0.542498975,12.555001 0.7475,12.355 C0.952501025,12.154999 1.1949986,11.9950006 1.475,11.875 C1.7550014,11.7549994 2.0549984,11.695 2.375,11.695 C2.68500155,11.695 2.9799986,11.7549994 3.26,11.875 C3.5400014,11.9950006 3.779999,12.154999 3.98,12.355 C4.180001,12.555001 4.3399994,12.7949986 4.46,13.075 C4.5800006,13.3550014 4.64,13.6499984 4.64,13.96 C4.64,14.2800016 4.5800006,14.5774986 4.46,14.8525 C4.3399994,15.1275014 4.180001,15.364999 3.98,15.565 C3.779999,15.765001 3.5400014,15.9224994 3.26,16.0375 C2.9799986,16.1525006 2.68500155,16.21 2.375,16.21 C2.0549984,16.21 1.7550014,16.1525006 1.475,16.0375 C1.1949986,15.9224994 0.952501025,15.765001 0.7475,15.565 C0.542498975,15.364999 0.382500575,15.1275014 0.2675,14.8525 C0.152499425,14.5774986 0.095,14.2800016 0.095,13.96 L0.095,13.96 Z M18.545,3.865 C18.4349995,4.0050007 18.3275005,4.1149996 18.2225,4.195 C18.1174995,4.2750004 17.965001,4.315 17.765,4.315 C17.5749991,4.315 17.3900009,4.25750058 17.21,4.1425 C17.0299991,4.02749943 16.8150013,3.89750073 16.565,3.7525 C16.3149988,3.60749928 16.0175017,3.47750058 15.6725,3.3625 C15.3274983,3.24749943 14.9000026,3.19 14.39,3.19 C13.7399968,3.19 13.1700025,3.30749883 12.68,3.5425 C12.1899976,3.77750118 11.7825016,4.1149978 11.4575,4.555 C11.1324984,4.9950022 10.8900008,5.52749688 10.73,6.1525 C10.5699992,6.77750313 10.49,7.48499605 10.49,8.275 C10.49,9.0950041 10.5774991,9.8249968 10.7525,10.465 C10.9275009,11.1050032 11.1799984,11.6424978 11.51,12.0775 C11.8400017,12.5125022 12.2399977,12.8424989 12.71,13.0675 C13.1800024,13.2925011 13.7099971,13.405 14.3,13.405 C14.890003,13.405 15.3674982,13.3325007 15.7325,13.1875 C16.0975018,13.0424993 16.4049988,12.8825009 16.655,12.7075 C16.9050013,12.5324991 17.1224991,12.3725007 17.3075,12.2275 C17.4925009,12.0824993 17.6999989,12.01 17.93,12.01 C18.2300015,12.01 18.4549993,12.1249989 18.605,12.355 L19.67,13.705 C19.259998,14.1850024 18.8150024,14.5874984 18.335,14.9125 C17.8549976,15.2375016 17.3575026,15.497499 16.8425,15.6925 C16.3274974,15.887501 15.7950028,16.0249996 15.245,16.105 C14.6949973,16.1850004 14.1500027,16.225 13.61,16.225 C12.6599953,16.225 11.7650042,16.0475018 10.925,15.6925 C10.0849958,15.3374982 9.35250313,14.8200034 8.7275,14.14 C8.10249688,13.4599966 7.60750183,12.6275049 7.2425,11.6425 C6.87749818,10.6574951 6.695,9.5350063 6.695,8.275 C6.695,7.14499435 6.85749838,6.09750483 7.1825,5.1325 C7.50750163,4.16749518 7.98499685,3.33250353 8.615,2.6275 C9.24500315,1.92249648 10.0249954,1.370002 10.955,0.97 C11.8850047,0.569998 12.954994,0.37 14.165,0.37 C15.3150058,0.37 16.3224957,0.55499815 17.1875,0.925 C18.0525043,1.29500185 18.8299966,1.82499655 19.52,2.515 L18.545,3.865 Z M28.61,0.37 C29.7600057,0.37 30.8024953,0.55499815 31.7375,0.925 C32.6725047,1.29500185 33.4699967,1.8199966 34.13,2.5 C34.7900033,3.1800034 35.2999982,4.0099951 35.66,4.99 C36.0200018,5.9700049 36.2,7.06499395 36.2,8.275 C36.2,9.4950061 36.0200018,10.5949951 35.66,11.575 C35.2999982,12.5550049 34.7900033,13.3899966 34.13,14.08 C33.4699967,14.7700035 32.6725047,15.2999982 31.7375,15.67 C30.8024953,16.0400019 29.7600057,16.225 28.61,16.225 C27.4599942,16.225 26.4150047,16.0400019 25.475,15.67 C24.5349953,15.2999982 23.7325033,14.7700035 23.0675,14.08 C22.4024967,13.3899966 21.8875018,12.5550049 21.5225,11.575 C21.1574982,10.5949951 20.975,9.4950061 20.975,8.275 C20.975,7.06499395 21.1574982,5.9700049 21.5225,4.99 C21.8875018,4.0099951 22.4024967,3.1800034 23.0675,2.5 C23.7325033,1.8199966 24.5349953,1.29500185 25.475,0.925 C26.4150047,0.55499815 27.4599942,0.37 28.61,0.37 L28.61,0.37 Z M28.61,13.375 C29.8900064,13.375 30.8374969,12.9450043 31.4525,12.085 C32.0675031,11.2249957 32.375,9.9650083 32.375,8.305 C32.375,6.6449917 32.0675031,5.38000435 31.4525,4.51 C30.8374969,3.63999565 29.8900064,3.205 28.61,3.205 C27.3099935,3.205 26.3500031,3.64249563 25.73,4.5175 C25.1099969,5.39250438 24.8,6.65499175 24.8,8.305 C24.8,9.95500825 25.1099969,11.2124957 25.73,12.0775 C26.3500031,12.9425043 27.3099935,13.375 28.61,13.375 L28.61,13.375 Z M39.095,16 L39.095,0.61 L41.36,0.61 C41.8400024,0.61 42.1549993,0.83499775 42.305,1.285 L42.545,2.425 C42.8150014,2.1249985 43.0974985,1.85000125 43.3925,1.6 C43.6875015,1.34999875 44.0024983,1.1350009 44.3375,0.955 C44.6725017,0.7749991 45.0324981,0.632500525 45.4175,0.5275 C45.8025019,0.422499475 46.2249977,0.37 46.685,0.37 C47.6550049,0.37 48.4524969,0.632497375 49.0775,1.1575 C49.7025031,1.68250263 50.1699985,2.37999565 50.48,3.25 C50.7200012,2.73999745 51.0199982,2.30250183 51.38,1.9375 C51.7400018,1.57249818 52.1349979,1.27500115 52.565,1.045 C52.9950022,0.81499885 53.4524976,0.64500055 53.9375,0.535 C54.4225024,0.42499945 54.9099976,0.37 55.4,0.37 C56.2500043,0.37 57.0049967,0.4999987 57.665,0.76 C58.3250033,1.0200013 58.8799978,1.3999975 59.33,1.9 C59.7800023,2.4000025 60.1224988,3.0099964 60.3575,3.73 C60.5925012,4.4500036 60.71,5.27499535 60.71,6.205 L60.71,16 L57.005,16 L57.005,6.205 C57.005,5.2249951 56.7900022,4.48750248 56.36,3.9925 C55.9299979,3.49749753 55.3000042,3.25 54.47,3.25 C54.0899981,3.25 53.7375016,3.31499935 53.4125,3.445 C53.0874984,3.57500065 52.8025012,3.76249878 52.5575,4.0075 C52.3124988,4.25250123 52.1200007,4.55999815 51.98,4.93 C51.8399993,5.30000185 51.77,5.7249976 51.77,6.205 L51.77,16 L48.05,16 L48.05,6.205 C48.05,5.17499485 47.8425021,4.42500235 47.4275,3.955 C47.0124979,3.48499765 46.4000041,3.25 45.59,3.25 C45.0599974,3.25 44.5625023,3.38249868 44.0975,3.6475 C43.6324977,3.91250133 43.200002,4.2749977 42.8,4.735 L42.8,16 L39.095,16 Z"></path>
                        </g>
                        <g transform="translate(438.000000, 162.000000)" id=".co" fill="#000000">
                            <path d="M0.095,13.96 C0.095,13.6499984 0.152499425,13.3550014 0.2675,13.075 C0.382500575,12.7949986 0.542498975,12.555001 0.7475,12.355 C0.952501025,12.154999 1.1949986,11.9950006 1.475,11.875 C1.7550014,11.7549994 2.0549984,11.695 2.375,11.695 C2.68500155,11.695 2.9799986,11.7549994 3.26,11.875 C3.5400014,11.9950006 3.779999,12.154999 3.98,12.355 C4.180001,12.555001 4.3399994,12.7949986 4.46,13.075 C4.5800006,13.3550014 4.64,13.6499984 4.64,13.96 C4.64,14.2800016 4.5800006,14.5774986 4.46,14.8525 C4.3399994,15.1275014 4.180001,15.364999 3.98,15.565 C3.779999,15.765001 3.5400014,15.9224994 3.26,16.0375 C2.9799986,16.1525006 2.68500155,16.21 2.375,16.21 C2.0549984,16.21 1.7550014,16.1525006 1.475,16.0375 C1.1949986,15.9224994 0.952501025,15.765001 0.7475,15.565 C0.542498975,15.364999 0.382500575,15.1275014 0.2675,14.8525 C0.152499425,14.5774986 0.095,14.2800016 0.095,13.96 L0.095,13.96 Z M18.545,3.865 C18.4349995,4.0050007 18.3275005,4.1149996 18.2225,4.195 C18.1174995,4.2750004 17.965001,4.315 17.765,4.315 C17.5749991,4.315 17.3900009,4.25750058 17.21,4.1425 C17.0299991,4.02749943 16.8150013,3.89750073 16.565,3.7525 C16.3149988,3.60749928 16.0175017,3.47750058 15.6725,3.3625 C15.3274983,3.24749943 14.9000026,3.19 14.39,3.19 C13.7399968,3.19 13.1700025,3.30749883 12.68,3.5425 C12.1899976,3.77750118 11.7825016,4.1149978 11.4575,4.555 C11.1324984,4.9950022 10.8900008,5.52749688 10.73,6.1525 C10.5699992,6.77750313 10.49,7.48499605 10.49,8.275 C10.49,9.0950041 10.5774991,9.8249968 10.7525,10.465 C10.9275009,11.1050032 11.1799984,11.6424978 11.51,12.0775 C11.8400017,12.5125022 12.2399977,12.8424989 12.71,13.0675 C13.1800024,13.2925011 13.7099971,13.405 14.3,13.405 C14.890003,13.405 15.3674982,13.3325007 15.7325,13.1875 C16.0975018,13.0424993 16.4049988,12.8825009 16.655,12.7075 C16.9050013,12.5324991 17.1224991,12.3725007 17.3075,12.2275 C17.4925009,12.0824993 17.6999989,12.01 17.93,12.01 C18.2300015,12.01 18.4549993,12.1249989 18.605,12.355 L19.67,13.705 C19.259998,14.1850024 18.8150024,14.5874984 18.335,14.9125 C17.8549976,15.2375016 17.3575026,15.497499 16.8425,15.6925 C16.3274974,15.887501 15.7950028,16.0249996 15.245,16.105 C14.6949973,16.1850004 14.1500027,16.225 13.61,16.225 C12.6599953,16.225 11.7650042,16.0475018 10.925,15.6925 C10.0849958,15.3374982 9.35250313,14.8200034 8.7275,14.14 C8.10249688,13.4599966 7.60750183,12.6275049 7.2425,11.6425 C6.87749818,10.6574951 6.695,9.5350063 6.695,8.275 C6.695,7.14499435 6.85749838,6.09750483 7.1825,5.1325 C7.50750163,4.16749518 7.98499685,3.33250353 8.615,2.6275 C9.24500315,1.92249648 10.0249954,1.370002 10.955,0.97 C11.8850047,0.569998 12.954994,0.37 14.165,0.37 C15.3150058,0.37 16.3224957,0.55499815 17.1875,0.925 C18.0525043,1.29500185 18.8299966,1.82499655 19.52,2.515 L18.545,3.865 Z M28.61,0.37 C29.7600057,0.37 30.8024953,0.55499815 31.7375,0.925 C32.6725047,1.29500185 33.4699967,1.8199966 34.13,2.5 C34.7900033,3.1800034 35.2999982,4.0099951 35.66,4.99 C36.0200018,5.9700049 36.2,7.06499395 36.2,8.275 C36.2,9.4950061 36.0200018,10.5949951 35.66,11.575 C35.2999982,12.5550049 34.7900033,13.3899966 34.13,14.08 C33.4699967,14.7700035 32.6725047,15.2999982 31.7375,15.67 C30.8024953,16.0400019 29.7600057,16.225 28.61,16.225 C27.4599942,16.225 26.4150047,16.0400019 25.475,15.67 C24.5349953,15.2999982 23.7325033,14.7700035 23.0675,14.08 C22.4024967,13.3899966 21.8875018,12.5550049 21.5225,11.575 C21.1574982,10.5949951 20.975,9.4950061 20.975,8.275 C20.975,7.06499395 21.1574982,5.9700049 21.5225,4.99 C21.8875018,4.0099951 22.4024967,3.1800034 23.0675,2.5 C23.7325033,1.8199966 24.5349953,1.29500185 25.475,0.925 C26.4150047,0.55499815 27.4599942,0.37 28.61,0.37 L28.61,0.37 Z M28.61,13.375 C29.8900064,13.375 30.8374969,12.9450043 31.4525,12.085 C32.0675031,11.2249957 32.375,9.9650083 32.375,8.305 C32.375,6.6449917 32.0675031,5.38000435 31.4525,4.51 C30.8374969,3.63999565 29.8900064,3.205 28.61,3.205 C27.3099935,3.205 26.3500031,3.64249563 25.73,4.5175 C25.1099969,5.39250438 24.8,6.65499175 24.8,8.305 C24.8,9.95500825 25.1099969,11.2124957 25.73,12.0775 C26.3500031,12.9425043 27.3099935,13.375 28.61,13.375 L28.61,13.375 Z"></path>
                        </g>
                        <g transform="translate(594.000000, 155.000000)" id=".io" fill="#000000">
                            <path d="M0.095,20.96 C0.095,20.6499984 0.152499425,20.3550014 0.2675,20.075 C0.382500575,19.7949986 0.542498975,19.555001 0.7475,19.355 C0.952501025,19.154999 1.1949986,18.9950006 1.475,18.875 C1.7550014,18.7549994 2.0549984,18.695 2.375,18.695 C2.68500155,18.695 2.9799986,18.7549994 3.26,18.875 C3.5400014,18.9950006 3.779999,19.154999 3.98,19.355 C4.180001,19.555001 4.3399994,19.7949986 4.46,20.075 C4.5800006,20.3550014 4.64,20.6499984 4.64,20.96 C4.64,21.2800016 4.5800006,21.5774986 4.46,21.8525 C4.3399994,22.1275014 4.180001,22.364999 3.98,22.565 C3.779999,22.765001 3.5400014,22.9224994 3.26,23.0375 C2.9799986,23.1525006 2.68500155,23.21 2.375,23.21 C2.0549984,23.21 1.7550014,23.1525006 1.475,23.0375 C1.1949986,22.9224994 0.952501025,22.765001 0.7475,22.565 C0.542498975,22.364999 0.382500575,22.1275014 0.2675,21.8525 C0.152499425,21.5774986 0.095,21.2800016 0.095,20.96 L0.095,20.96 Z M11.675,7.61 L11.675,23 L7.97,23 L7.97,7.61 L11.675,7.61 Z M12.23,3.125 C12.23,3.4450016 12.1650007,3.7449986 12.035,4.025 C11.9049994,4.3050014 11.7325011,4.54999895 11.5175,4.76 C11.3024989,4.97000105 11.0500015,5.13749937 10.76,5.2625 C10.4699986,5.38750062 10.1600017,5.45 9.83,5.45 C9.5099984,5.45 9.20750143,5.38750062 8.9225,5.2625 C8.63749858,5.13749937 8.39000105,4.97000105 8.18,4.76 C7.96999895,4.54999895 7.80250063,4.3050014 7.6775,4.025 C7.55249938,3.7449986 7.49,3.4450016 7.49,3.125 C7.49,2.79499835 7.55249938,2.48500145 7.6775,2.195 C7.80250063,1.90499855 7.96999895,1.65500105 8.18,1.445 C8.39000105,1.23499895 8.63749858,1.06750062 8.9225,0.9425 C9.20750143,0.817499375 9.5099984,0.755 9.83,0.755 C10.1600017,0.755 10.4699986,0.817499375 10.76,0.9425 C11.0500015,1.06750062 11.3024989,1.23499895 11.5175,1.445 C11.7325011,1.65500105 11.9049994,1.90499855 12.035,2.195 C12.1650007,2.48500145 12.23,2.79499835 12.23,3.125 L12.23,3.125 Z M22.43,7.37 C23.5800058,7.37 24.6224953,7.55499815 25.5575,7.925 C26.4925047,8.29500185 27.2899967,8.8199966 27.95,9.5 C28.6100033,10.1800034 29.1199982,11.0099951 29.48,11.99 C29.8400018,12.9700049 30.02,14.064994 30.02,15.275 C30.02,16.4950061 29.8400018,17.5949951 29.48,18.575 C29.1199982,19.5550049 28.6100033,20.3899965 27.95,21.08 C27.2899967,21.7700035 26.4925047,22.2999982 25.5575,22.67 C24.6224953,23.0400019 23.5800058,23.225 22.43,23.225 C21.2799943,23.225 20.2350047,23.0400019 19.295,22.67 C18.3549953,22.2999982 17.5525033,21.7700035 16.8875,21.08 C16.2224967,20.3899965 15.7075018,19.5550049 15.3425,18.575 C14.9774982,17.5949951 14.795,16.4950061 14.795,15.275 C14.795,14.064994 14.9774982,12.9700049 15.3425,11.99 C15.7075018,11.0099951 16.2224967,10.1800034 16.8875,9.5 C17.5525033,8.8199966 18.3549953,8.29500185 19.295,7.925 C20.2350047,7.55499815 21.2799943,7.37 22.43,7.37 L22.43,7.37 Z M22.43,20.375 C23.7100064,20.375 24.6574969,19.9450043 25.2725,19.085 C25.8875031,18.2249957 26.195,16.9650083 26.195,15.305 C26.195,13.6449917 25.8875031,12.3800043 25.2725,11.51 C24.6574969,10.6399956 23.7100064,10.205 22.43,10.205 C21.1299935,10.205 20.1700031,10.6424956 19.55,11.5175 C18.9299969,12.3925044 18.62,13.6549917 18.62,15.305 C18.62,16.9550082 18.9299969,18.2124957 19.55,19.0775 C20.1700031,19.9425043 21.1299935,20.375 22.43,20.375 L22.43,20.375 Z"></path>
                        </g>
                        <g transform="translate(737.000000, 157.000000)" id=".net" fill="#000000">
                            <path d="M0.095,18.96 C0.095,18.6499984 0.152499425,18.3550014 0.2675,18.075 C0.382500575,17.7949986 0.542498975,17.555001 0.7475,17.355 C0.952501025,17.154999 1.1949986,16.9950006 1.475,16.875 C1.7550014,16.7549994 2.0549984,16.695 2.375,16.695 C2.68500155,16.695 2.9799986,16.7549994 3.26,16.875 C3.5400014,16.9950006 3.779999,17.154999 3.98,17.355 C4.180001,17.555001 4.3399994,17.7949986 4.46,18.075 C4.5800006,18.3550014 4.64,18.6499984 4.64,18.96 C4.64,19.2800016 4.5800006,19.5774986 4.46,19.8525 C4.3399994,20.1275014 4.180001,20.364999 3.98,20.565 C3.779999,20.765001 3.5400014,20.9224994 3.26,21.0375 C2.9799986,21.1525006 2.68500155,21.21 2.375,21.21 C2.0549984,21.21 1.7550014,21.1525006 1.475,21.0375 C1.1949986,20.9224994 0.952501025,20.765001 0.7475,20.565 C0.542498975,20.364999 0.382500575,20.1275014 0.2675,19.8525 C0.152499425,19.5774986 0.095,19.2800016 0.095,18.96 L0.095,18.96 Z M7.73,21 L7.73,5.61 L9.995,5.61 C10.4750024,5.61 10.7899993,5.83499775 10.94,6.285 L11.195,7.5 C11.5050016,7.1799984 11.8324983,6.8900013 12.1775,6.63 C12.5225017,6.3699987 12.8874981,6.14500095 13.2725,5.955 C13.6575019,5.76499905 14.0699978,5.6200005 14.51,5.52 C14.9500022,5.4199995 15.4299974,5.37 15.95,5.37 C16.7900042,5.37 17.5349968,5.51249858 18.185,5.7975 C18.8350033,6.08250143 19.3774978,6.48249743 19.8125,6.9975 C20.2475022,7.51250258 20.5774989,8.12749643 20.8025,8.8425 C21.0275011,9.55750358 21.14,10.3449957 21.14,11.205 L21.14,21 L17.435,21 L17.435,11.205 C17.435,10.2649953 17.2175022,9.53750258 16.7825,9.0225 C16.3474978,8.50749743 15.6950044,8.25 14.825,8.25 C14.1849968,8.25 13.5850028,8.39499855 13.025,8.685 C12.4649972,8.97500145 11.9350025,9.3699975 11.435,9.87 L11.435,21 L7.73,21 Z M31.145,5.37 C32.1150048,5.37 33.0074959,5.52499845 33.8225,5.835 C34.6375041,6.14500155 35.3399971,6.59749703 35.93,7.1925 C36.5200029,7.78750298 36.9799984,8.51749568 37.31,9.3825 C37.6400017,10.2475043 37.805,11.2349945 37.805,12.345 C37.805,12.6250014 37.7925001,12.8574991 37.7675,13.0425 C37.7424999,13.2275009 37.6975003,13.3724995 37.6325,13.4775 C37.5674997,13.5825005 37.4800005,13.6574998 37.37,13.7025 C37.2599994,13.7475002 37.1200008,13.77 36.95,13.77 L27.44,13.77 C27.5500006,15.3500079 27.9749963,16.5099963 28.715,17.25 C29.4550037,17.9900037 30.4349939,18.36 31.655,18.36 C32.255003,18.36 32.7724978,18.2900007 33.2075,18.15 C33.6425022,18.0099993 34.0224984,17.8550008 34.3475,17.685 C34.6725016,17.5149992 34.9574988,17.3600007 35.2025,17.22 C35.4475012,17.0799993 35.6849988,17.01 35.915,17.01 C36.0650007,17.01 36.1949994,17.0399997 36.305,17.1 C36.4150006,17.1600003 36.5099996,17.2449995 36.59,17.355 L37.67,18.705 C37.2599979,19.1850024 36.8000026,19.5874984 36.29,19.9125 C35.7799974,20.2375016 35.2475028,20.497499 34.6925,20.6925 C34.1374972,20.887501 33.5725029,21.0249996 32.9975,21.105 C32.4224971,21.1850004 31.8650027,21.225 31.325,21.225 C30.2549947,21.225 29.2600046,21.0475018 28.34,20.6925 C27.4199954,20.3374982 26.6200034,19.8125035 25.94,19.1175 C25.2599966,18.4224965 24.7250019,17.5625051 24.335,16.5375 C23.9449981,15.5124949 23.75,14.3250068 23.75,12.975 C23.75,11.9249948 23.9199983,10.9375046 24.26,10.0125 C24.6000017,9.08749538 25.0874968,8.28250343 25.7225,7.5975 C26.3575032,6.91249658 27.1324954,6.370002 28.0475,5.97 C28.9625046,5.569998 29.9949942,5.37 31.145,5.37 L31.145,5.37 Z M31.22,8.025 C30.1399946,8.025 29.2950031,8.32999695 28.685,8.94 C28.074997,9.55000305 27.6850009,10.4149944 27.515,11.535 L34.475,11.535 C34.475,11.0549976 34.4100007,10.6025021 34.28,10.1775 C34.1499994,9.75249788 33.9500014,9.3800016 33.68,9.06 C33.4099987,8.7399984 33.0700021,8.48750093 32.66,8.3025 C32.249998,8.11749908 31.7700028,8.025 31.22,8.025 L31.22,8.025 Z M45.875,21.24 C44.5449933,21.24 43.5200036,20.8625038 42.8,20.1075 C42.0799964,19.3524962 41.72,18.3100067 41.72,16.98 L41.72,8.385 L40.16,8.385 C39.959999,8.385 39.7875007,8.32000065 39.6425,8.19 C39.4974993,8.05999935 39.425,7.8650013 39.425,7.605 L39.425,6.135 L41.9,5.73 L42.68,1.53 C42.7200002,1.329999 42.8124993,1.17500055 42.9575,1.065 C43.1025007,0.95499945 43.2849989,0.9 43.505,0.9 L45.425,0.9 L45.425,5.745 L49.475,5.745 L49.475,8.385 L45.425,8.385 L45.425,16.725 C45.425,17.2050024 45.5449988,17.5799987 45.785,17.85 C46.0250012,18.1200014 46.344998,18.255 46.745,18.255 C46.9750011,18.255 47.1674992,18.2275003 47.3225,18.1725 C47.4775008,18.1174997 47.6124994,18.0600003 47.7275,18 C47.8425006,17.9399997 47.9449995,17.8825003 48.035,17.8275 C48.1250004,17.7724997 48.2149995,17.745 48.305,17.745 C48.4150005,17.745 48.5049996,17.7724997 48.575,17.8275 C48.6450003,17.8825003 48.7199996,17.9649995 48.8,18.075 L49.91,19.875 C49.3699973,20.3250023 48.7500035,20.6649989 48.05,20.895 C47.3499965,21.1250012 46.6250037,21.24 45.875,21.24 L45.875,21.24 Z"></path>
                        </g>
                        <g transform="translate(887.000000, 162.000000)" id=".xyz" fill="#000000">
                            <path d="M0.095,13.96 C0.095,13.6499985 0.152499425,13.3550014 0.2675,13.075 C0.382500575,12.7949986 0.542498975,12.555001 0.7475,12.355 C0.952501025,12.154999 1.1949986,11.9950006 1.475,11.875 C1.7550014,11.7549994 2.0549984,11.695 2.375,11.695 C2.68500155,11.695 2.9799986,11.7549994 3.26,11.875 C3.5400014,11.9950006 3.779999,12.154999 3.98,12.355 C4.180001,12.555001 4.3399994,12.7949986 4.46,13.075 C4.5800006,13.3550014 4.64,13.6499985 4.64,13.96 C4.64,14.2800016 4.5800006,14.5774986 4.46,14.8525 C4.3399994,15.1275014 4.180001,15.364999 3.98,15.565 C3.779999,15.765001 3.5400014,15.9224994 3.26,16.0375 C2.9799986,16.1525006 2.68500155,16.21 2.375,16.21 C2.0549984,16.21 1.7550014,16.1525006 1.475,16.0375 C1.1949986,15.9224994 0.952501025,15.765001 0.7475,15.565 C0.542498975,15.364999 0.382500575,15.1275014 0.2675,14.8525 C0.152499425,14.5774986 0.095,14.2800016 0.095,13.96 L0.095,13.96 Z M11.375,8.065 L6.32,0.61 L9.89,0.61 C10.1600014,0.61 10.3599994,0.647499625 10.49,0.7225 C10.6200007,0.797500375 10.7349995,0.91999915 10.835,1.09 L14.06,6.235 C14.1100003,6.06499915 14.1724996,5.89500085 14.2475,5.725 C14.3225004,5.55499915 14.4149995,5.38500085 14.525,5.215 L17.12,1.165 C17.2400006,0.97499905 17.3649994,0.83500045 17.495,0.745 C17.6250007,0.65499955 17.7849991,0.61 17.975,0.61 L21.38,0.61 L16.31,7.9 L21.59,16 L18.02,16 C17.7499987,16 17.5325008,15.9300007 17.3675,15.79 C17.2024992,15.6499993 17.0650006,15.4900009 16.955,15.31 L13.685,9.955 C13.5949996,10.3150018 13.4700008,10.6149988 13.31,10.855 L10.43,15.31 C10.3199995,15.4800009 10.1850008,15.6374993 10.025,15.7825 C9.8649992,15.9275007 9.6650012,16 9.425,16 L6.11,16 L11.375,8.065 Z M29.39,20.23 C29.2799995,20.4900013 29.1375009,20.6874993 28.9625,20.8225 C28.7874991,20.9575007 28.5200018,21.025 28.16,21.025 L25.4,21.025 L28.28,14.86 L22.055,0.61 L25.295,0.61 C25.5950015,0.61 25.8249992,0.6799993 25.985,0.82 C26.1450008,0.9600007 26.2649996,1.1199991 26.345,1.3 L29.63,9.28 C29.7400006,9.5400013 29.8349996,9.8099986 29.915,10.09 C29.9950004,10.3700014 30.0649997,10.6499986 30.125,10.93 C30.2050004,10.6399986 30.2924995,10.3600014 30.3875,10.09 C30.4825005,9.81999865 30.5849995,9.5450014 30.695,9.265 L33.785,1.3 C33.8650004,1.099999 33.9974991,0.93500065 34.1825,0.805 C34.3675009,0.67499935 34.5749989,0.61 34.805,0.61 L37.775,0.61 L29.39,20.23 Z M51.065,2.14 C51.065,2.4000013 51.0175005,2.65249878 50.9225,2.8975 C50.8274995,3.14250123 50.7150007,3.34999915 50.585,3.52 L43.265,13.15 L50.855,13.15 L50.855,16 L38.96,16 L38.96,14.455 C38.96,14.2849992 38.9999996,14.0825012 39.08,13.8475 C39.1600004,13.6124988 39.2849992,13.3900011 39.455,13.18 L46.835,3.445 L39.395,3.445 L39.395,0.61 L51.065,0.61 L51.065,2.14 Z"></path>
                        </g>
                        <g transform="translate(240.000000, 319.000000)" id="Shape" fill="#395185">
                            <path d="M19.8409684,21.0000692 C20.4809758,21.0000692 20.9999872,20.4811399 20.9999872,19.8410504 L20.9999872,1.15901882 C20.9999872,0.51884734 20.4809758,0 19.8409684,0 L1.15901882,0 C0.518765309,0 0,0.51884734 0,1.15901882 L0,19.8410504 C0,20.4811399 0.518765309,21.0000692 1.15901882,21.0000692 L19.8409684,21.0000692"></path>
                        </g>
                        <g transform="translate(248.449214, 322.117186)" id="Shape" fill="#FFFFFF">
                            <path d="M6.04036741,17.8828836 L6.04036741,9.75055656 L8.77011965,9.75055656 L9.17879909,6.58128114 L6.04036741,6.58128114 L6.04036741,4.5577355 C6.04036741,3.6401345 6.29523835,3.01481066 7.61110083,3.01481066 L9.28937715,3.01407238 L9.28937715,0.179484266 C8.9989867,0.14084757 8.00279981,0.054550748 6.84386302,0.054550748 C4.42410668,0.054550748 2.76756863,1.5315225 2.76756863,4.24396616 L2.76756863,6.58128114 L0.0308437312,6.58128114 L0.0308437312,9.75055656 L2.76756863,9.75055656 L2.76756863,17.8828836 L6.04036741,17.8828836"></path>
                        </g>
                        <g id="social-networks">
                            <g id="Group" transform="translate(240.000000, 360.000000)" fill="#55ACEE">
                                <path d="M1.0664056,0 L19.9335816,0 C20.5225656,0 20.9999872,0.477446193 20.9999872,1.0664056 L20.9999872,19.9335816 C20.9999872,20.5225656 20.5225656,20.9999872 19.9335816,20.9999872 L1.0664056,20.9999872 C0.477446193,20.9999872 0,20.5225656 0,19.9335816 L0,1.0664056 C0,0.477446193 0.477446193,0 1.0664056,0" id="Shape"></path>
                            </g>
                            <g id="Group" transform="translate(242.953123, 364.347654)" fill="#FFFFFF">
                                <path d="M15.1674868,1.45563544 C14.6094286,1.70252474 14.0096985,1.86939261 13.3801911,1.94444296 C14.0226594,1.56023342 14.5160771,0.951881842 14.7483894,0.227029549 C14.1471828,0.582725035 13.4812535,0.8410823 12.7724219,0.980330262 C12.204766,0.377007192 11.3960204,0 10.50106,0 C8.78250637,0 7.3891244,1.38987923 7.3891244,3.10420006 C7.3891244,3.3474964 7.41676892,3.58442711 7.46976107,3.81162072 C4.88355523,3.68216729 2.59066014,2.44630984 1.055881,0.568230122 C0.78802452,1.0267107 0.634568754,1.55995452 0.634568754,2.12884909 C0.634568754,3.20581211 1.18398092,4.15594669 2.01894369,4.71261041 C1.50881627,4.69653229 1.02902398,4.55691519 0.609442597,4.32435674 C0.609221113,4.33731767 0.609221113,4.35036063 0.609221113,4.36340359 C0.609221113,5.86744564 1.68185288,7.12211285 3.10538951,7.4072533 C2.84425139,7.47821029 2.56935664,7.5161087 2.28552048,7.5161087 C2.08501982,7.5161087 1.89006447,7.49674934 1.70010482,7.46049155 C2.09606122,8.69374861 3.24525271,9.59125197 4.60693782,9.61635351 C3.54195956,10.4488882 2.20019163,10.9451769 0.742308532,10.9451769 C0.491153607,10.9451769 0.243443992,10.9304933 0,10.9017824 C1.37710697,11.7825514 3.0128009,12.2964769 4.77009787,12.2964769 C10.4937592,12.2964769 13.6236597,7.56631179 13.6236597,3.46416117 C13.6236597,3.32956438 13.6207065,3.19568126 13.6147183,3.06257743 C14.2226515,2.62490817 14.7502762,2.07815381 15.1674868,1.45563544" id="Shape"></path>
                            </g>
                            <g id="Group" transform="translate(240.000000, 401.000000)" fill="#D53F71">
                                <path d="M20.1250023,0 C20.6082716,0 21.0000024,0.391751006 21.0000024,0.8750001 L21.0000024,20.1250023 C21.0000024,20.6082716 20.6082716,21.0000024 20.1250023,21.0000024 L0.8750001,21.0000024 C0.391751006,21.0000024 0,20.6082716 0,20.1250023 L0,0.8750001 C0,0.391751006 0.391751006,0 0.8750001,0 L20.1250023,0 Z" id="Shape"></path>
                            </g>
                            <g id="Group" transform="translate(242.692000, 403.692000)" fill="#FFFFFF">
                                <path d="M0,4.51006686 C0,2.01922427 2.01943965,0 4.51006686,0 L11.1052993,0 C13.5961554,0 15.6153864,2.01943965 15.6153864,4.51006686 L15.6153864,11.1052993 C15.6153864,13.5961554 13.5959535,15.6153864 11.1052993,15.6153864 L4.51006686,15.6153864 C2.01922427,15.6153864 0,13.5959535 0,11.1052993 L0,4.51006686 M1.4134617,4.64466207 C1.4134617,2.86011956 2.86024744,1.4134617 4.64466207,1.4134617 L10.9707513,1.4134617 C12.7552803,1.4134617 14.2019247,2.86024744 14.2019247,4.64466207 L14.2019247,10.9707513 C14.2019247,12.7552803 12.7551457,14.2019247 10.9707513,14.2019247 L4.64466207,14.2019247 C2.86011956,14.2019247 1.4134617,12.7551457 1.4134617,10.9707513 L1.4134617,4.64466207" id="Shape"></path>
                            </g>
                            <g id="Group" transform="translate(246.528539, 407.528539)" fill="#FFFFFF">
                                <path d="M3.9711543,7.9423086 C6.1643757,7.9423086 7.9423086,6.1643757 7.9423086,3.9711543 C7.9423086,1.77794636 6.1643757,0 3.9711543,0 C1.77794636,0 0,1.77794636 0,3.9711543 C0,6.1643757 1.77794636,7.9423086 3.9711543,7.9423086 M3.9711543,6.5288469 C5.383741,6.5288469 6.5288469,5.383741 6.5288469,3.9711543 C6.5288469,2.55858106 5.383741,1.4134617 3.9711543,1.4134617 C2.55858106,1.4134617 1.4134617,2.55858106 1.4134617,3.9711543 C1.4134617,5.383741 2.55858106,6.5288469 3.9711543,6.5288469" id="Shape"></path>
                            </g>
                            <g id="Group" transform="translate(253.663155, 406.384308)" fill="#FFFFFF">
                                <path d="M1.8846156,0.9423078 C1.8846156,1.46273094 1.46273094,1.8846156 0.9423078,1.8846156 C0.421884664,1.8846156 0,1.46273094 0,0.9423078 C0,0.421884664 0.421884664,0 0.9423078,0 C1.46273094,0 1.8846156,0.421884664 1.8846156,0.9423078" id="Shape"></path>
                            </g>
                            <g id="Group" transform="translate(240.000000, 442.000000)" fill="#231F20">
                                <path d="M1.0664056,0 L19.9335816,0 C20.5225656,0 20.9999872,0.477446193 20.9999872,1.0664056 L20.9999872,19.9335816 C20.9999872,20.5225656 20.5225656,20.9999872 19.9335816,20.9999872 L1.0664056,20.9999872 C0.477446193,20.9999872 0,20.5225656 0,19.9335816 L0,1.0664056 C0,0.477446193 0.477446193,0 1.0664056,0" id="Shape"></path>
                            </g>
                            <g id="Group" transform="translate(252.714401, 446.758000)" fill="#7F7F7F">
                                <path d="M0.445921603,0.0612928103 C0.240105322,-0.041772748 0.0716952688,0.062456669 0.0716952688,0.292898962 L0.0716952688,9.46008408 L3.82823204,11.3409775 C4.24166929,11.5478601 4.57676674,11.402993 4.57676674,11.0174464 L4.57676674,2.18971624 C4.57676674,2.15286783 4.55584879,2.11898074 4.52295427,2.10242684 L0.445921603,0.0612928103" id="Shape"></path>
                            </g>
                            <g id="Group" transform="translate(248.202685, 446.758000)" fill="#ABACAD">
                                <path d="M0.0784382334,7.20449678 L4.36414187,0.230697984 C4.48472774,0.0343948618 4.75182132,-0.041772748 4.9576376,0.0612928103 L9.03926402,2.10475653 C9.0657601,2.1180784 9.07519369,2.15118619 9.05968979,2.17640258 L4.58341127,9.46008408 L0.0784382334,7.20449678" id="Shape"></path>
                            </g>
                            <g id="Group" transform="translate(244.019094, 446.840031)" fill="#D8D8D8">
                                <path d="M0.380692034,0.104182085 C0.0375637271,-0.0676804158 -0.0786629989,0.0594381669 0.122409418,0.386609764 L4.26202943,7.12246558 L8.76700247,9.37805288 L4.27171732,2.06319952 C4.26538451,2.05285539 4.25621342,2.04457844 4.2453689,2.03914798 L0.380692034,0.104182085" id="Shape"></path>
                            </g>
                            <g id="Group" transform="translate(243.773000, 446.758000)" fill="#FFFFFF">
                                <path d="M4.50812303,11.0174464 C4.50812303,11.4015165 4.22737125,11.5751765 3.88436599,11.4034032 L0.377285278,9.64744334 C0.171433724,9.54433012 0.00303408799,9.27149435 0.00303408799,9.04106871 L0.00303408799,0.432562002 C0.00303408799,0.125304299 0.22761033,-0.0137110229 0.502035046,0.123753089 L4.4838418,2.1172991 C4.49869765,2.12480495 4.50812303,2.13993151 4.50812303,2.1564854 L4.50812303,11.0174464" id="Shape"></path>
                            </g>
                            <g id="Group" transform="translate(356.000000, 587.000000)"></g>
                            <path d="M223,765 L601,765 C602.657,765 604,765.902328 604,767.015625 L604,934.984375 C604,936.097672 602.657,937 601,937 L223,937 C221.343,937 220,936.097672 220,934.984375 L220,767.015625 C220,765.902328 221.343,765 223,765" id="Shape" fill="#F5F5F5"></path>
                            <g id="Group" transform="translate(232.000000, 804.000000)" fill="#FFFFFF">
                                <path d="M3,0 L357,0 C358.657,0 360,1.343 360,3 L360,34 C360,35.657 358.657,37 357,37 L3,37 C1.343,37 0,35.657 0,34 L0,3 C0,1.343 1.343,0 3,0" id="Shape"></path>
                            </g>
                            <g id="Group" transform="translate(232.000000, 845.000000)" fill="#FFFFFF">
                                <path d="M3,0 L357,0 C358.657,0 360,1.343 360,3 L360,34 C360,35.657 358.657,37 357,37 L3,37 C1.343,37 0,35.657 0,34 L0,3 C0,1.343 1.343,0 3,0" id="Shape"></path>
                            </g>
                            <g id="Group" transform="translate(742.000000, 354.000000)" fill="#000000">
                                <path d="M0.65,0.55 L0.65,21.55 C0.65,21.82 0.83,22 1.1,22 L4.16,22 C4.43,22 4.61,21.82 4.61,21.55 L4.61,0.55 C4.61,0.28 4.43,0.1 4.16,0.1 L1.1,0.1 C0.83,0.1 0.65,0.28 0.65,0.55 L0.65,0.55 Z M22.37,7.3 L19.61,7.3 C19.34,7.3 19.19,7.48 19.16,7.75 L19.07,9.13 C17.96,7.87 16.46,6.97 14.6,6.97 C10.49,6.97 7.49,10.39 7.49,14.68 C7.49,18.97 10.49,22.39 14.6,22.39 C16.52,22.39 17.99,21.52 19.04,20.29 L19.16,21.55 C19.19,21.82 19.34,22 19.61,22 L22.37,22 C22.64,22 22.82,21.82 22.82,21.55 L22.82,7.75 C22.82,7.48 22.64,7.3 22.37,7.3 L22.37,7.3 Z M15.08,18.79 C12.89,18.79 11.3,17.02 11.3,14.65 C11.3,12.31 12.89,10.57 15.08,10.57 C17.24,10.57 18.83,12.43 18.83,14.65 C18.83,16.87 17.24,18.79 15.08,18.79 L15.08,18.79 Z M39.44,7.3 L36.38,7.3 C36.11,7.3 35.93,7.48 35.93,7.75 L35.93,15.88 C35.93,16.93 34.88,18.73 32.75,18.73 C31.34,18.73 29.93,17.89 29.93,15.46 L29.93,7.75 C29.93,7.48 29.75,7.3 29.48,7.3 L26.42,7.3 C26.15,7.3 25.97,7.48 25.97,7.75 L25.97,16.18 C25.97,20.11 28.25,22.39 31.55,22.39 C33.41,22.39 34.91,21.34 35.93,19.9 L36.05,21.55 C36.08,21.82 36.23,22 36.5,22 L39.44,22 C39.71,22 39.89,21.82 39.89,21.55 L39.89,7.75 C39.89,7.48 39.71,7.3 39.44,7.3 L39.44,7.3 Z M51.8,6.97 C49.67,6.97 48.11,8.14 47.15,9.7 L47.15,9.67 L47.03,7.75 C47,7.48 46.85,7.3 46.58,7.3 L43.64,7.3 C43.37,7.3 43.19,7.48 43.19,7.75 L43.19,21.55 C43.19,21.82 43.37,22 43.64,22 L46.7,22 C46.97,22 47.15,21.82 47.15,21.55 L47.15,13.51 C47.15,12.82 48.17,10.63 50.39,10.63 C51.83,10.63 53.15,11.47 53.15,13.9 L53.15,21.55 C53.15,21.82 53.33,22 53.6,22 L56.66,22 C56.93,22 57.11,21.82 57.11,21.55 L57.11,13.18 C57.11,9.25 54.8,6.97 51.8,6.97 L51.8,6.97 Z M67.55,18.73 C65.33,18.73 63.77,16.99 63.77,14.68 C63.77,12.37 65.33,10.63 67.55,10.63 C68.9,10.63 69.77,11.2 70.61,11.95 C70.85,12.16 71.06,12.19 71.27,11.98 L73.1,10.21 C73.28,10.03 73.31,9.79 73.13,9.58 C71.75,7.99 69.74,6.97 67.46,6.97 C63.23,6.97 59.96,10.36 59.96,14.68 C59.96,19 63.23,22.39 67.46,22.39 C69.8,22.39 71.84,21.37 73.22,19.78 C73.4,19.57 73.37,19.33 73.19,19.15 L71.36,17.41 C71.15,17.2 70.94,17.2 70.7,17.41 C69.86,18.16 68.96,18.73 67.55,18.73 L67.55,18.73 Z M84.65,6.97 C82.52,6.97 80.96,8.14 80,9.7 L80,0.55 C80,0.28 79.82,0.1 79.55,0.1 L76.49,0.1 C76.22,0.1 76.04,0.28 76.04,0.55 L76.04,21.55 C76.04,21.82 76.22,22 76.49,22 L79.55,22 C79.82,22 80,21.82 80,21.55 L80,13.51 C80,12.82 81.02,10.63 83.24,10.63 C84.68,10.63 86,11.47 86,13.9 L86,21.55 C86,21.82 86.18,22 86.45,22 L89.51,22 C89.78,22 89.96,21.82 89.96,21.55 L89.96,13.18 C89.96,9.25 87.65,6.97 84.65,6.97 L84.65,6.97 Z M107.69,7.3 L104.93,7.3 C104.66,7.3 104.51,7.48 104.48,7.75 L104.39,9.13 C103.28,7.87 101.78,6.97 99.92,6.97 C95.81,6.97 92.81,10.39 92.81,14.68 C92.81,18.97 95.81,22.39 99.92,22.39 C101.84,22.39 103.31,21.52 104.36,20.29 L104.48,21.55 C104.51,21.82 104.66,22 104.93,22 L107.69,22 C107.96,22 108.14,21.82 108.14,21.55 L108.14,7.75 C108.14,7.48 107.96,7.3 107.69,7.3 L107.69,7.3 Z M100.4,18.79 C98.21,18.79 96.62,17.02 96.62,14.65 C96.62,12.31 98.21,10.57 100.4,10.57 C102.56,10.57 104.15,12.43 104.15,14.65 C104.15,16.87 102.56,18.79 100.4,18.79 L100.4,18.79 Z M118.58,18.73 C116.36,18.73 114.8,16.99 114.8,14.68 C114.8,12.37 116.36,10.63 118.58,10.63 C119.93,10.63 120.8,11.2 121.64,11.95 C121.88,12.16 122.09,12.19 122.3,11.98 L124.13,10.21 C124.31,10.03 124.34,9.79 124.16,9.58 C122.78,7.99 120.77,6.97 118.49,6.97 C114.26,6.97 110.99,10.36 110.99,14.68 C110.99,19 114.26,22.39 118.49,22.39 C120.83,22.39 122.87,21.37 124.25,19.78 C124.43,19.57 124.4,19.33 124.22,19.15 L122.39,17.41 C122.18,17.2 121.97,17.2 121.73,17.41 C120.89,18.16 119.99,18.73 118.58,18.73 L118.58,18.73 Z M133.79,22.39 C138.02,22.39 141.41,19 141.41,14.68 C141.41,10.36 138.02,6.97 133.79,6.97 C129.56,6.97 126.17,10.36 126.17,14.68 C126.17,19 129.56,22.39 133.79,22.39 L133.79,22.39 Z M133.79,18.73 C131.66,18.73 129.98,17.05 129.98,14.68 C129.98,12.31 131.66,10.63 133.79,10.63 C135.89,10.63 137.6,12.31 137.6,14.68 C137.6,17.05 135.89,18.73 133.79,18.73 L133.79,18.73 Z" id="launchaco"></path>
                            </g>
                            <g id="Group" transform="translate(746.000000, 480.000000)" fill="#000000">
                                <path d="M3.37597656,0.258789062 L3.37597656,25 L0.080078125,25 L0.080078125,0.258789062 L3.37597656,0.258789062 Z M18.0683594,10.7324219 L21.3789062,10.7324219 L21.3789062,25 L18.0683594,25 L18.0683594,23.5058594 C16.7109307,24.775397 15.2509844,25.4101562 13.6884766,25.4101562 C11.7158104,25.4101562 10.0849674,24.6972728 8.79589844,23.2714844 C7.51659517,21.816399 6.87695312,20.0000109 6.87695312,17.8222656 C6.87695312,15.6835831 7.51659517,13.9013743 8.79589844,12.4755859 C10.0752017,11.0497976 11.6767482,10.3369141 13.6005859,10.3369141 C15.2607505,10.3369141 16.7499934,11.020501 18.0683594,12.3876953 L18.0683594,10.7324219 Z M10.2460938,17.8222656 C10.2460938,19.18946 10.612301,20.3027301 11.3447266,21.1621094 C12.0966834,22.0312543 13.0439396,22.4658203 14.1865234,22.4658203 C15.4072327,22.4658203 16.3935509,22.0459026 17.1455078,21.2060547 C17.8974647,20.3369097 18.2734375,19.2334051 18.2734375,17.8955078 C18.2734375,16.5576105 17.8974647,15.4541059 17.1455078,14.5849609 C16.3935509,13.7353473 15.4169982,13.3105469 14.2158203,13.3105469 C13.0830021,13.3105469 12.135746,13.7402301 11.3740234,14.5996094 C10.6220666,15.4687543 10.2460938,16.5429624 10.2460938,17.8222656 L10.2460938,17.8222656 Z M28.8349609,10.7324219 L28.8349609,18.9208984 C28.8349609,21.2841915 29.7675688,22.4658203 31.6328125,22.4658203 C33.4980562,22.4658203 34.4306641,21.2841915 34.4306641,18.9208984 L34.4306641,10.7324219 L37.7265625,10.7324219 L37.7265625,18.9941406 C37.7265625,20.1367245 37.5849624,21.1230427 37.3017578,21.953125 C37.0283189,22.6953162 36.5546909,23.3642548 35.8808594,23.9599609 C34.7675726,24.9267626 33.3515711,25.4101562 31.6328125,25.4101562 C29.9238196,25.4101562 28.5127009,24.9267626 27.3994141,23.9599609 C26.7158169,23.3642548 26.2324233,22.6953162 25.9492188,21.953125 C25.6757799,21.2890592 25.5390625,20.3027409 25.5390625,18.9941406 L25.5390625,10.7324219 L28.8349609,10.7324219 Z M41.8867188,10.7324219 L45.1972656,10.7324219 L45.1972656,12.0507812 C46.3496151,10.9081974 47.6484303,10.3369141 49.09375,10.3369141 C50.7539146,10.3369141 52.0478469,10.8593698 52.9755859,11.9042969 C53.7763712,12.7929732 54.1767578,14.243154 54.1767578,16.2548828 L54.1767578,25 L50.8662109,25 L50.8662109,17.03125 C50.8662109,15.624993 50.6709004,14.653323 50.2802734,14.1162109 C49.8994122,13.5693332 49.2060597,13.2958984 48.2001953,13.2958984 C47.1064398,13.2958984 46.3300804,13.6572229 45.8710938,14.3798828 C45.4218728,15.092777 45.1972656,16.3378817 45.1972656,18.1152344 L45.1972656,25 L41.8867188,25 L41.8867188,10.7324219 Z M69.4404297,11.3476562 L69.4404297,15.7275391 C68.6884728,14.8095657 68.0146514,14.1796892 67.4189453,13.8378906 C66.8330049,13.4863264 66.1445352,13.3105469 65.3535156,13.3105469 C64.113275,13.3105469 63.0830119,13.7451128 62.2626953,14.6142578 C61.4423787,15.4834028 61.0322266,16.5722591 61.0322266,17.8808594 C61.0322266,19.2187567 61.4277304,20.3173785 62.21875,21.1767578 C63.0195353,22.0361371 64.0400329,22.4658203 65.2802734,22.4658203 C66.071293,22.4658203 66.7695282,22.2949236 67.375,21.953125 C67.9609404,21.6210921 68.6494101,20.9765673 69.4404297,20.0195312 L69.4404297,24.3701172 C68.1025324,25.06348 66.7646551,25.4101562 65.4267578,25.4101562 C63.2197155,25.4101562 61.3740309,24.6972728 59.8896484,23.2714844 C58.405266,21.8359303 57.6630859,20.0537216 57.6630859,17.9248047 C57.6630859,15.7958878 58.4150315,13.9990308 59.9189453,12.5341797 C61.4228591,11.0693286 63.2685437,10.3369141 65.4560547,10.3369141 C66.8623117,10.3369141 68.1904234,10.6738248 69.4404297,11.3476562 L69.4404297,11.3476562 Z M73.4101562,0.258789062 L76.7060547,0.258789062 L76.7060547,11.9189453 C77.8779355,10.8642525 79.1718679,10.3369141 80.5878906,10.3369141 C82.1992268,10.3369141 83.4882764,10.8593698 84.4550781,11.9042969 C85.2753947,12.8125045 85.6855469,14.2626854 85.6855469,16.2548828 L85.6855469,25 L82.3896484,25 L82.3896484,16.5625 C82.3896484,15.4199162 82.1870137,14.5922877 81.7817383,14.0795898 C81.3764628,13.566892 80.7246139,13.3105469 79.8261719,13.3105469 C78.6738224,13.3105469 77.8632836,13.6669886 77.3945312,14.3798828 C76.9355446,15.1025427 76.7060547,16.3427646 76.7060547,18.1005859 L76.7060547,25 L73.4101562,25 L73.4101562,0.258789062 Z M100.37793,10.7324219 L103.688477,10.7324219 L103.688477,25 L100.37793,25 L100.37793,23.5058594 C99.020501,24.775397 97.5605547,25.4101562 95.9980469,25.4101562 C94.0253808,25.4101562 92.3945377,24.6972728 91.1054688,23.2714844 C89.8261655,21.816399 89.1865234,20.0000109 89.1865234,17.8222656 C89.1865234,15.6835831 89.8261655,13.9013743 91.1054688,12.4755859 C92.384772,11.0497976 93.9863185,10.3369141 95.9101562,10.3369141 C97.5703208,10.3369141 99.0595637,11.020501 100.37793,12.3876953 L100.37793,10.7324219 Z M92.5556641,17.8222656 C92.5556641,19.18946 92.9218713,20.3027301 93.6542969,21.1621094 C94.4062538,22.0312543 95.3535099,22.4658203 96.4960938,22.4658203 C97.716803,22.4658203 98.7031212,22.0459026 99.4550781,21.2060547 C100.207035,20.3369097 100.583008,19.2334051 100.583008,17.8955078 C100.583008,16.5576105 100.207035,15.4541059 99.4550781,14.5849609 C98.7031212,13.7353473 97.7265685,13.3105469 96.5253906,13.3105469 C95.3925725,13.3105469 94.4453163,13.7402301 93.6835938,14.5996094 C92.9316369,15.4687543 92.5556641,16.5429624 92.5556641,17.8222656 L92.5556641,17.8222656 Z M118.952148,11.3476562 L118.952148,15.7275391 C118.200192,14.8095657 117.52637,14.1796892 116.930664,13.8378906 C116.344724,13.4863264 115.656254,13.3105469 114.865234,13.3105469 C113.624994,13.3105469 112.594731,13.7451128 111.774414,14.6142578 C110.954097,15.4834028 110.543945,16.5722591 110.543945,17.8808594 C110.543945,19.2187567 110.939449,20.3173785 111.730469,21.1767578 C112.531254,22.0361371 113.551752,22.4658203 114.791992,22.4658203 C115.583012,22.4658203 116.281247,22.2949236 116.886719,21.953125 C117.472659,21.6210921 118.161129,20.9765673 118.952148,20.0195312 L118.952148,24.3701172 C117.614251,25.06348 116.276374,25.4101562 114.938477,25.4101562 C112.731434,25.4101562 110.88575,24.6972728 109.401367,23.2714844 C107.916985,21.8359303 107.174805,20.0537216 107.174805,17.9248047 C107.174805,15.7958878 107.92675,13.9990308 109.430664,12.5341797 C110.934578,11.0693286 112.780262,10.3369141 114.967773,10.3369141 C116.37403,10.3369141 117.702142,10.6738248 118.952148,11.3476562 L118.952148,11.3476562 Z M121.47168,17.7636719 C121.47168,15.7031147 122.208977,13.9502025 123.683594,12.5048828 C125.15821,11.0595631 126.955068,10.3369141 129.074219,10.3369141 C131.203136,10.3369141 133.009758,11.0644458 134.494141,12.5195312 C135.958992,13.9746167 136.691406,15.7617082 136.691406,17.8808594 C136.691406,20.0195419 135.954109,21.8115162 134.479492,23.2568359 C132.99511,24.69239 131.173839,25.4101562 129.015625,25.4101562 C126.876942,25.4101562 125.084968,24.6777417 123.639648,23.2128906 C122.194329,21.7675709 121.47168,19.9511828 121.47168,17.7636719 L121.47168,17.7636719 Z M124.84082,17.8222656 C124.84082,19.248054 125.221676,20.3759724 125.983398,21.2060547 C126.764652,22.0459026 127.794915,22.4658203 129.074219,22.4658203 C130.363288,22.4658203 131.393551,22.0507854 132.165039,21.2207031 C132.936527,20.3906208 133.322266,19.2822335 133.322266,17.8955078 C133.322266,16.5087821 132.936527,15.4003948 132.165039,14.5703125 C131.383785,13.7304646 130.353522,13.3105469 129.074219,13.3105469 C127.814447,13.3105469 126.793949,13.7304646 126.012695,14.5703125 C125.231441,15.4101604 124.84082,16.494134 124.84082,17.8222656 L124.84082,17.8222656 Z" id="launchaco"></path>
                            </g>
                            <g id="Group" transform="translate(745.000000, 618.000000)" fill="#000000">
                                <path d="M0.65,23 L5.15,23 L5.15,0.32 L0.65,0.32 L0.65,23 Z M17.54,23 L21.68,23 L21.68,15.59 C21.68,10.73 20.27,8.06 15.02,8.06 C12.65,8.06 10.25,8.84 8.6,10.4 L11,12.86 C11.96,11.78 13.19,11.12 14.66,11.12 C16.22,11.12 17.54,12.14 17.54,13.73 C13.79,13.73 7.67,13.82 7.67,18.86 C7.67,21.8 10.13,23.36 12.86,23.36 C14.69,23.36 16.49,22.73 17.48,21.17 L17.54,21.17 L17.54,23 Z M17.54,16.61 L17.54,17.57 C17.54,19.37 15.89,20.3 14.12,20.3 C13.13,20.3 11.99,19.79 11.99,18.71 C11.99,16.73 15.05,16.61 16.43,16.61 L17.54,16.61 Z M38.54,8.42 L34.04,8.42 L34.04,15.68 C34.04,17.57 33.68,19.4 31.34,19.4 C29.03,19.4 29,17.24 29,15.56 L29,8.42 L24.5,8.42 L24.5,16.46 C24.5,20.36 25.34,23.36 29.9,23.36 C32.09,23.36 33.56,22.16 34.16,21.02 L34.22,21.02 L34.22,23 L38.54,23 L38.54,8.42 Z M41.72,23 L46.22,23 L46.22,15.74 C46.22,13.85 46.58,12.02 48.92,12.02 C51.23,12.02 51.26,14.18 51.26,15.86 L51.26,23 L55.76,23 L55.76,14.96 C55.76,11.06 54.92,8.06 50.36,8.06 C48.17,8.06 46.7,9.26 46.1,10.4 L46.04,10.4 L46.04,8.42 L41.72,8.42 L41.72,23 Z M71.78,10.01 C70.37,8.57 68.3,8.06 66.59,8.06 C62.09,8.06 58.49,11.06 58.49,15.71 C58.49,20.36 62.09,23.36 66.59,23.36 C68.3,23.36 70.37,22.85 71.78,21.41 L68.81,18.29 C68.3,18.89 67.58,19.4 66.59,19.4 C64.34,19.4 62.99,17.9 62.99,15.71 C62.99,13.52 64.34,12.02 66.59,12.02 C67.52,12.02 68.36,12.5 68.81,13.13 L71.78,10.01 Z M73.4,0.32 L73.4,23 L77.9,23 L77.9,15.74 C77.9,13.85 78.26,12.02 80.6,12.02 C82.91,12.02 82.94,14.18 82.94,15.86 L82.94,23 L87.44,23 L87.44,14.96 C87.44,11.06 86.6,8.06 82.04,8.06 C79.85,8.06 78.38,9.26 77.96,10.4 L77.9,10.4 L77.9,0.32 L73.4,0.32 Z M99.77,23 L103.91,23 L103.91,15.59 C103.91,10.73 102.5,8.06 97.25,8.06 C94.88,8.06 92.48,8.84 90.83,10.4 L93.23,12.86 C94.19,11.78 95.42,11.12 96.89,11.12 C98.45,11.12 99.77,12.14 99.77,13.73 C96.02,13.73 89.9,13.82 89.9,18.86 C89.9,21.8 92.36,23.36 95.09,23.36 C96.92,23.36 98.72,22.73 99.71,21.17 L99.77,21.17 L99.77,23 Z M99.77,16.61 L99.77,17.57 C99.77,19.37 98.12,20.3 96.35,20.3 C95.36,20.3 94.22,19.79 94.22,18.71 C94.22,16.73 97.28,16.61 98.66,16.61 L99.77,16.61 Z M119.57,10.01 C118.16,8.57 116.09,8.06 114.38,8.06 C109.88,8.06 106.28,11.06 106.28,15.71 C106.28,20.36 109.88,23.36 114.38,23.36 C116.09,23.36 118.16,22.85 119.57,21.41 L116.6,18.29 C116.09,18.89 115.37,19.4 114.38,19.4 C112.13,19.4 110.78,17.9 110.78,15.71 C110.78,13.52 112.13,12.02 114.38,12.02 C115.31,12.02 116.15,12.5 116.6,13.13 L119.57,10.01 Z M120.65,15.71 C120.65,20.36 124.25,23.36 128.75,23.36 C133.25,23.36 136.85,20.36 136.85,15.71 C136.85,11.06 133.25,8.06 128.75,8.06 C124.25,8.06 120.65,11.06 120.65,15.71 L120.65,15.71 Z M125.15,15.71 C125.15,13.52 126.5,12.02 128.75,12.02 C131,12.02 132.35,13.52 132.35,15.71 C132.35,17.9 131,19.4 128.75,19.4 C126.5,19.4 125.15,17.9 125.15,15.71 L125.15,15.71 Z" id="launchaco"></path>
                            </g>
                            <g id="Group" transform="translate(0.000000, 1.000000)" fill-opacity="0.0470588" fill="#000000">
                                <polyline id="Shape" points="0 0 1210 0 1210 64 0 64 0 0"></polyline>
                            </g>
                            <g id="Group" transform="translate(5.000000, 0.000000)" fill="#FFFFFF">
                                <polygon id="Shape" points="1205 0 1205 64 0 64 0 0"></polygon>
                            </g>
                            <g id="Group" transform="translate(223.000000, 23.000000)" fill="#CCCCCC">
                                <path d="M12.5,11 L11.71,11 L11.43,10.73 C12.41,9.59 13,8.11 13,6.5 C13,2.91 10.09,0 6.5,0 C2.91,0 0,2.91 0,6.5 C0,10.09 2.91,13 6.5,13 C8.11,13 9.59,12.41 10.73,11.43 L11,11.71 L11,12.5 L16,17.49 L17.49,16 L12.5,11 M6.5,11 C4.01,11 2,8.99 2,6.5 C2,4.01 4.01,2 6.5,2 C8.99,2 11,4.01 11,6.5 C11,8.99 8.99,11 6.5,11" id="Shape"></path>
                            </g>
                        </g>
                    </g>
                </g>
            </g>
            <g id="social-networks" transform="translate(170.000000, 290.000000)">
                <rect id="Rectangle" fill-opacity="0.699999988" fill="#B3B3B3" x="62" y="36" width="76" height="9" rx="4.5"></rect>
                <rect id="Rectangle" fill-opacity="0.699999988" fill="#B3B3B3" x="62" y="77" width="76" height="9" rx="4.5"></rect>
                <rect id="Rectangle" fill-opacity="0.699999988" fill="#B3B3B3" x="62" y="118" width="76" height="9" rx="4.5"></rect>
                <rect id="Rectangle" fill-opacity="0.699999988" fill="#B3B3B3" x="62" y="159" width="76" height="9" rx="4.5"></rect>
                <rect id="Rectangle" fill-opacity="0.699999988" fill="#B3B3B3" x="305" y="77" width="41" height="9" rx="4.5"></rect>
                <rect id="Rectangle" fill-opacity="0.699999988" fill="#B3B3B3" x="305" y="36" width="41" height="9" rx="4.5"></rect>
                <rect id="Rectangle" fill="#52CA6F" x="305" y="118" width="41" height="9" rx="4.5"></rect>
                <rect id="Rectangle" fill-opacity="0.699999988" fill="#B3B3B3" x="305" y="159" width="41" height="9" rx="4.5"></rect>
                <rect id="Rectangle" fill-opacity="0.799999952" fill="#C9C9C9" x="33" y="77" width="20.0703125" height="9" rx="4.5"></rect>
                <rect id="Rectangle" fill-opacity="0.799999952" fill="#C9C9C9" x="33" y="36" width="20.0703125" height="9" rx="4.5"></rect>
                <rect id="Rectangle" fill-opacity="0.799999952" fill="#C9C9C9" x="33" y="118" width="20.0703125" height="9" rx="4.5"></rect>
                <rect id="Rectangle" fill-opacity="0.799999952" fill="#C9C9C9" x="33" y="159" width="20.0703125" height="9" rx="4.5"></rect>
                <rect id="Rectangle" fill="#B3B3B3" x="0" y="0" width="138" height="9" rx="4.5"></rect>
            </g>
            <g id="startup-domains" transform="translate(170.000000, 514.000000)">
                <rect id="Rectangle" fill-opacity="0.900000036" fill="#3FC55F" x="305" y="80" width="41" height="9" rx="4.5"></rect>
                <rect id="Rectangle" fill-opacity="0.900000036" fill="#3FC55F" x="305" y="203" width="41" height="9" rx="4.5"></rect>
                <rect id="Rectangle" fill-opacity="0.900000036" fill="#3FC55F" x="305" y="39" width="41" height="9" rx="4.5"></rect>
                <rect id="Rectangle" fill-opacity="0.900000036" fill="#3FC55F" x="305" y="121" width="41" height="9" rx="4.5"></rect>
                <rect id="Rectangle" fill-opacity="0.900000036" fill="#3FC55F" x="305" y="162" width="41" height="9" rx="4.5"></rect>
                <rect id="Rectangle" fill-opacity="0.5" fill="#B3B3B3" x="35" y="41" width="76" height="9" rx="4.5"></rect>
                <rect id="Rectangle" fill-opacity="0.5" fill="#B3B3B3" x="35" y="82" width="76" height="9" rx="4.5"></rect>
                <rect id="Rectangle" fill-opacity="0.5" fill="#B3B3B3" x="35" y="123" width="76" height="9" rx="4.5"></rect>
                <rect id="Rectangle" fill-opacity="0.5" fill="#B3B3B3" x="35" y="164" width="76" height="9" rx="4.5"></rect>
                <rect id="Rectangle" fill-opacity="0.5" fill="#B3B3B3" x="35" y="204" width="76" height="9" rx="4.5"></rect>
                <rect id="Rectangle" fill-opacity="0.300000012" fill="#B3B3B3" x="120" y="82" width="41" height="9" rx="4.5"></rect>
                <rect id="Rectangle" fill-opacity="0.300000012" fill="#B3B3B3" x="120" y="41" width="41" height="9" rx="4.5"></rect>
                <rect id="Rectangle" fill-opacity="0.300000012" fill="#B3B3B3" x="120" y="123" width="41" height="9" rx="4.5"></rect>
                <rect id="Rectangle" fill-opacity="0.300000012" fill="#B3B3B3" x="120" y="164" width="41" height="9" rx="4.5"></rect>
                <rect id="Rectangle" fill-opacity="0.300000012" fill="#B3B3B3" x="120" y="204" width="41" height="9" rx="4.5"></rect>
                <rect id="Rectangle" fill="#C9C9C9" x="7" y="82" width="20.0703125" height="9" rx="4.5"></rect>
                <rect id="Rectangle" fill="#C9C9C9" x="7" y="41" width="20.0703125" height="9" rx="4.5"></rect>
                <rect id="Rectangle" fill="#C9C9C9" x="7" y="123" width="20.0703125" height="9" rx="4.5"></rect>
                <rect id="Rectangle" fill="#C9C9C9" x="7" y="164" width="20.0703125" height="9" rx="4.5"></rect>
                <rect id="Rectangle" fill="#C9C9C9" x="7" y="204" width="20.0703125" height="9" rx="4.5"></rect>
                <rect id="Rectangle" fill="#B3B3B3" x="0" y="0" width="110" height="9" rx="4.5"></rect>
            </g>
            <g id="business-domains" transform="translate(170.000000, 781.000000)">
                <rect id="Rectangle" fill-opacity="0.900000036" fill="#3FC55F" x="305" y="79" width="41" height="9" rx="4.5"></rect>
                <rect id="Rectangle" fill-opacity="0.900000036" fill="#3FC55F" x="305" y="38" width="41" height="9" rx="4.5"></rect>
                <rect id="Rectangle" fill-opacity="0.699999988" fill="#B3B3B3" x="4" y="40" width="76" height="9" rx="4.5"></rect>
                <rect id="Rectangle" fill-opacity="0.699999988" fill="#B3B3B3" x="4" y="80" width="76" height="9" rx="4.5"></rect>
                <rect id="Rectangle" fill="#B3B3B3" x="0" y="0" width="120" height="9" rx="4.5"></rect>
            </g>
            <g id="sans-serif-logotype" transform="translate(560.000000, 290.000000)">
                <rect id="Rectangle" fill-opacity="0.300000012" fill="#B3B3B3" x="10" y="128" width="104" height="9" rx="4.5"></rect>
                <rect id="Rectangle" fill-opacity="0.300000012" fill="#B3B3B3" x="10" y="392" width="104" height="9" rx="4.5"></rect>
                <rect id="Rectangle" fill-opacity="0.300000012" fill="#B3B3B3" x="10" y="525" width="160" height="9" rx="4.5"></rect>
                <rect id="Rectangle" fill-opacity="0.300000012" fill="#B3B3B3" x="10" y="260" width="135" height="9" rx="4.5"></rect>
                <rect id="Rectangle" fill-opacity="0.900000036" fill="#3FC55F" x="303" y="127" width="51" height="9" rx="4.5"></rect>
                <rect id="Rectangle" fill-opacity="0.900000036" fill="#3FC55F" x="303" y="259" width="51" height="9" rx="4.5"></rect>
                <rect id="Rectangle" fill-opacity="0.900000036" fill="#3FC55F" x="303" y="391" width="51" height="9" rx="4.5"></rect>
                <rect id="Rectangle" fill-opacity="0.900000036" fill="#3FC55F" x="303" y="525" width="51" height="9" rx="4.5"></rect>
                <rect id="Rectangle" fill="#B3B3B3" x="0" y="0" width="138" height="9" rx="4.5"></rect>
            </g>
            <g id="default-tlds" transform="translate(170.000000, 25.000000)">
                <rect id="Rectangle" fill-opacity="0.900000036" fill="#3FC55F" x="650" y="177" width="51" height="9" rx="4.5"></rect>
                <rect id="Rectangle" fill-opacity="0.900000036" fill="#3FC55F" x="499" y="177" width="51" height="9" rx="4.5"></rect>
                <rect id="Rectangle" fill-opacity="0.900000036" fill="#3FC55F" x="348" y="177" width="51" height="9" rx="4.5"></rect>
                <rect id="Rectangle" fill-opacity="0.900000036" fill="#3FC55F" x="197" y="177" width="51" height="9" rx="4.5"></rect>
                <rect id="Rectangle" fill-opacity="0.699999988" fill="#B3B3B3" x="46" y="178" width="51" height="9" rx="4.5"></rect>
                <rect id="Rectangle" fill="#B3B3B3" x="0" y="79" width="93" height="9" rx="4.5"></rect>
                <rect id="Rectangle" fill-opacity="0.699999988" fill="#B3B3B3" x="20" y="0" width="123" height="13" rx="6.5"></rect>
            </g>
            <text id="launchaco" font-family="Avenir-Roman, Avenir" font-size="28" font-weight="normal" fill="#000000">
                <tspan x="681" y="770">launchaco</tspan>
            </text>
        </g>
    </g>
</svg>