<?xml version="1.0" encoding="UTF-8"?>
<svg width="398px" height="60px" viewBox="0 0 398 60" version="1.1" xmlns="http://www.w3.org/2000/svg" xmlns:xlink="http://www.w3.org/1999/xlink">
    <!-- Generator: Sketch 40.3 (33839) - http://www.bohemiancoding.com/sketch -->
    <title>Launchaco</title>
    <desc>Created with Sketch.</desc>
    <defs></defs>
    <g id="Page-1" stroke="none" stroke-width="1" fill="none" fill-rule="evenodd">
        <g id="Artboard-3" fill="#000000">
            <path d="M29.484,49.329 L11.097,49.329 L11.097,3.645 C11.097,2.916 10.611,2.43 9.882,2.43 L1.215,2.43 C0.486,2.43 0,2.916 0,3.645 L0,57.915 C0,58.644 0.486,59.13 1.215,59.13 L29.484,59.13 C30.213,59.13 30.699,58.644 30.699,57.915 L30.699,50.544 C30.699,49.815 30.213,49.329 29.484,49.329 L29.484,49.329 Z M76.14,19.44 L68.688,19.44 C67.959,19.44 67.554,19.926 67.473,20.655 L67.23,24.381 C64.233,20.979 60.183,18.549 55.161,18.549 C44.064,18.549 35.964,27.783 35.964,39.366 C35.964,50.949 44.064,60.183 55.161,60.183 C60.345,60.183 64.314,57.834 67.149,54.513 L67.473,57.915 C67.554,58.644 67.959,59.13 68.688,59.13 L76.14,59.13 C76.869,59.13 77.355,58.644 77.355,57.915 L77.355,20.655 C77.355,19.926 76.869,19.44 76.14,19.44 L76.14,19.44 Z M56.457,50.463 C50.544,50.463 46.251,45.684 46.251,39.285 C46.251,32.967 50.544,28.269 56.457,28.269 C62.289,28.269 66.582,33.291 66.582,39.285 C66.582,45.279 62.289,50.463 56.457,50.463 L56.457,50.463 Z M122.229,19.44 L113.967,19.44 C113.238,19.44 112.752,19.926 112.752,20.655 L112.752,42.606 C112.752,45.441 109.917,50.301 104.166,50.301 C100.359,50.301 96.552,48.033 96.552,41.472 L96.552,20.655 C96.552,19.926 96.066,19.44 95.337,19.44 L87.075,19.44 C86.346,19.44 85.86,19.926 85.86,20.655 L85.86,43.416 C85.86,54.027 92.016,60.183 100.926,60.183 C105.948,60.183 109.998,57.348 112.752,53.46 L113.076,57.915 C113.157,58.644 113.562,59.13 114.291,59.13 L122.229,59.13 C122.958,59.13 123.444,58.644 123.444,57.915 L123.444,20.655 C123.444,19.926 122.958,19.44 122.229,19.44 L122.229,19.44 Z M155.601,18.549 C149.85,18.549 145.638,21.708 143.046,25.92 L143.046,25.839 L142.722,20.655 C142.641,19.926 142.236,19.44 141.507,19.44 L133.569,19.44 C132.84,19.44 132.354,19.926 132.354,20.655 L132.354,57.915 C132.354,58.644 132.84,59.13 133.569,59.13 L141.831,59.13 C142.56,59.13 143.046,58.644 143.046,57.915 L143.046,36.207 C143.046,34.344 145.8,28.431 151.794,28.431 C155.682,28.431 159.246,30.699 159.246,37.26 L159.246,57.915 C159.246,58.644 159.732,59.13 160.461,59.13 L168.723,59.13 C169.452,59.13 169.938,58.644 169.938,57.915 L169.938,35.316 C169.938,24.705 163.701,18.549 155.601,18.549 L155.601,18.549 Z M198.126,50.301 C192.132,50.301 187.92,45.603 187.92,39.366 C187.92,33.129 192.132,28.431 198.126,28.431 C201.771,28.431 204.12,29.97 206.388,31.995 C207.036,32.562 207.603,32.643 208.17,32.076 L213.111,27.297 C213.597,26.811 213.678,26.163 213.192,25.596 C209.466,21.303 204.039,18.549 197.883,18.549 C186.462,18.549 177.633,27.702 177.633,39.366 C177.633,51.03 186.462,60.183 197.883,60.183 C204.201,60.183 209.709,57.429 213.435,53.136 C213.921,52.569 213.84,51.921 213.354,51.435 L208.413,46.737 C207.846,46.17 207.279,46.17 206.631,46.737 C204.363,48.762 201.933,50.301 198.126,50.301 L198.126,50.301 Z M244.296,18.549 C238.545,18.549 234.333,21.708 231.741,25.92 L231.741,1.215 C231.741,0.486 231.255,0 230.526,0 L222.264,0 C221.535,0 221.049,0.486 221.049,1.215 L221.049,57.915 C221.049,58.644 221.535,59.13 222.264,59.13 L230.526,59.13 C231.255,59.13 231.741,58.644 231.741,57.915 L231.741,36.207 C231.741,34.344 234.495,28.431 240.489,28.431 C244.377,28.431 247.941,30.699 247.941,37.26 L247.941,57.915 C247.941,58.644 248.427,59.13 249.156,59.13 L257.418,59.13 C258.147,59.13 258.633,58.644 258.633,57.915 L258.633,35.316 C258.633,24.705 252.396,18.549 244.296,18.549 L244.296,18.549 Z M306.504,19.44 L299.052,19.44 C298.323,19.44 297.918,19.926 297.837,20.655 L297.594,24.381 C294.597,20.979 290.547,18.549 285.525,18.549 C274.428,18.549 266.328,27.783 266.328,39.366 C266.328,50.949 274.428,60.183 285.525,60.183 C290.709,60.183 294.678,57.834 297.513,54.513 L297.837,57.915 C297.918,58.644 298.323,59.13 299.052,59.13 L306.504,59.13 C307.233,59.13 307.719,58.644 307.719,57.915 L307.719,20.655 C307.719,19.926 307.233,19.44 306.504,19.44 L306.504,19.44 Z M286.821,50.463 C280.908,50.463 276.615,45.684 276.615,39.285 C276.615,32.967 280.908,28.269 286.821,28.269 C292.653,28.269 296.946,33.291 296.946,39.285 C296.946,45.279 292.653,50.463 286.821,50.463 L286.821,50.463 Z M335.907,50.301 C329.913,50.301 325.701,45.603 325.701,39.366 C325.701,33.129 329.913,28.431 335.907,28.431 C339.552,28.431 341.901,29.97 344.169,31.995 C344.817,32.562 345.384,32.643 345.951,32.076 L350.892,27.297 C351.378,26.811 351.459,26.163 350.973,25.596 C347.247,21.303 341.82,18.549 335.664,18.549 C324.243,18.549 315.414,27.702 315.414,39.366 C315.414,51.03 324.243,60.183 335.664,60.183 C341.982,60.183 347.49,57.429 351.216,53.136 C351.702,52.569 351.621,51.921 351.135,51.435 L346.194,46.737 C345.627,46.17 345.06,46.17 344.412,46.737 C342.144,48.762 339.714,50.301 335.907,50.301 L335.907,50.301 Z M376.974,60.183 C388.395,60.183 397.548,51.03 397.548,39.366 C397.548,27.702 388.395,18.549 376.974,18.549 C365.553,18.549 356.4,27.702 356.4,39.366 C356.4,51.03 365.553,60.183 376.974,60.183 L376.974,60.183 Z M376.974,50.301 C371.223,50.301 366.687,45.765 366.687,39.366 C366.687,32.967 371.223,28.431 376.974,28.431 C382.644,28.431 387.261,32.967 387.261,39.366 C387.261,45.765 382.644,50.301 376.974,50.301 L376.974,50.301 Z" id="Launchaco"></path>
        </g>
    </g>
</svg>