<?xml version="1.0" encoding="UTF-8" standalone="no"?>
<svg width="420px" height="842px" viewBox="0 0 420 842" version="1.1" xmlns="http://www.w3.org/2000/svg" xmlns:xlink="http://www.w3.org/1999/xlink" style="background: #FFFFFF;">
    <!-- Generator: Sketch 40.3 (33839) - http://www.bohemiancoding.com/sketch -->
    <title>Artboard 4</title>
    <desc>Created with Sketch.</desc>
    <defs></defs>
    <g id="Page-1" stroke="none" stroke-width="1" fill="none" fill-rule="evenodd">
        <g id="Artboard-4">
            <g id="HtmlToSvg" transform="translate(-5.000000, -5.000000)">
                <g id="Created-by-HiQPdf">
                    <g id="Group">
                        <g id="second-one" transform="translate(24.000000, 363.000000)">
                            <g id="Group-3">
                                <path d="M381,0 C382.657,0 384,1.343 384,3 L384,212 C384,213.657 382.657,215 381,215 L3,215 C1.343,215 0,213.657 0,212 L0,3 C0,1.343 1.343,0 3,0 L381,0 Z" id="Shape" fill="#F5F5F5"></path>
                                <g id="Group" transform="translate(12.000000, 121.000000)" fill="#FFFFFF">
                                    <path d="M3,0 L357,0 C358.657,0 360,1.343 360,3 L360,34 C360,35.657 358.657,37 357,37 L3,37 C1.343,37 0,35.657 0,34 L0,3 C0,1.343 1.343,0 3,0" id="Shape"></path>
                                </g>
                                <g id="Group" transform="translate(20.000000, 47.000000)" fill="#395185">
                                    <path d="M19.8409684,21.0000692 C20.4809758,21.0000692 20.9999872,20.4811399 20.9999872,19.8410504 L20.9999872,1.15901882 C20.9999872,0.51884734 20.4809758,0 19.8409684,0 L1.15901882,0 C0.518765309,0 0,0.51884734 0,1.15901882 L0,19.8410504 C0,20.4811399 0.518765309,21.0000692 1.15901882,21.0000692 L19.8409684,21.0000692" id="Shape"></path>
                                </g>
                                <g id="Group" transform="translate(28.449214, 50.117186)" fill="#FFFFFF">
                                    <path d="M6.04036741,17.8828836 L6.04036741,9.75055656 L8.77011965,9.75055656 L9.17879909,6.58128114 L6.04036741,6.58128114 L6.04036741,4.5577355 C6.04036741,3.6401345 6.29523835,3.01481066 7.61110083,3.01481066 L9.28937715,3.01407238 L9.28937715,0.179484266 C8.9989867,0.14084757 8.00279981,0.054550748 6.84386302,0.054550748 C4.42410668,0.054550748 2.76756863,1.5315225 2.76756863,4.24396616 L2.76756863,6.58128114 L0.0308437312,6.58128114 L0.0308437312,9.75055656 L2.76756863,9.75055656 L2.76756863,17.8828836 L6.04036741,17.8828836" id="Shape"></path>
                                </g>
                                <g id="Group" transform="translate(20.000000, 88.000000)" fill="#55ACEE">
                                    <path d="M1.0664056,0 L19.9335816,0 C20.5225656,0 20.9999872,0.477446193 20.9999872,1.0664056 L20.9999872,19.9335816 C20.9999872,20.5225656 20.5225656,20.9999872 19.9335816,20.9999872 L1.0664056,20.9999872 C0.477446193,20.9999872 0,20.5225656 0,19.9335816 L0,1.0664056 C0,0.477446193 0.477446193,0 1.0664056,0" id="Shape"></path>
                                </g>
                                <g id="Group" transform="translate(22.953123, 92.347654)" fill="#FFFFFF">
                                    <path d="M15.1674868,1.45563544 C14.6094286,1.70252474 14.0096985,1.86939261 13.3801911,1.94444296 C14.0226594,1.56023342 14.5160771,0.951881842 14.7483894,0.227029549 C14.1471828,0.582725035 13.4812535,0.8410823 12.7724219,0.980330262 C12.204766,0.377007192 11.3960204,0 10.50106,0 C8.78250637,0 7.3891244,1.38987923 7.3891244,3.10420006 C7.3891244,3.3474964 7.41676892,3.58442711 7.46976107,3.81162072 C4.88355523,3.68216729 2.59066014,2.44630984 1.055881,0.568230122 C0.78802452,1.0267107 0.634568754,1.55995452 0.634568754,2.12884909 C0.634568754,3.20581211 1.18398092,4.15594669 2.01894369,4.71261041 C1.50881627,4.69653229 1.02902398,4.55691519 0.609442597,4.32435674 C0.609221113,4.33731767 0.609221113,4.35036063 0.609221113,4.36340359 C0.609221113,5.86744564 1.68185288,7.12211285 3.10538951,7.4072533 C2.84425139,7.47821029 2.56935664,7.5161087 2.28552048,7.5161087 C2.08501982,7.5161087 1.89006447,7.49674934 1.70010482,7.46049155 C2.09606122,8.69374861 3.24525271,9.59125197 4.60693782,9.61635351 C3.54195956,10.4488882 2.20019163,10.9451769 0.742308532,10.9451769 C0.491153607,10.9451769 0.243443992,10.9304933 0,10.9017824 C1.37710697,11.7825514 3.0128009,12.2964769 4.77009787,12.2964769 C10.4937592,12.2964769 13.6236597,7.56631179 13.6236597,3.46416117 C13.6236597,3.32956438 13.6207065,3.19568126 13.6147183,3.06257743 C14.2226515,2.62490817 14.7502762,2.07815381 15.1674868,1.45563544" id="Shape"></path>
                                </g>
                                <g id="Group" transform="translate(20.000000, 129.000000)" fill="#D53F71">
                                    <path d="M20.1250023,0 C20.6082716,0 21.0000024,0.391751006 21.0000024,0.8750001 L21.0000024,20.1250023 C21.0000024,20.6082716 20.6082716,21.0000024 20.1250023,21.0000024 L0.8750001,21.0000024 C0.391751006,21.0000024 0,20.6082716 0,20.1250023 L0,0.8750001 C0,0.391751006 0.391751006,0 0.8750001,0 L20.1250023,0 Z" id="Shape"></path>
                                </g>
                                <g id="Group" transform="translate(22.692000, 131.692000)" fill="#FFFFFF">
                                    <path d="M0,4.51006686 C0,2.01922427 2.01943965,0 4.51006686,0 L11.1052993,0 C13.5961554,0 15.6153864,2.01943965 15.6153864,4.51006686 L15.6153864,11.1052993 C15.6153864,13.5961554 13.5959535,15.6153864 11.1052993,15.6153864 L4.51006686,15.6153864 C2.01922427,15.6153864 0,13.5959535 0,11.1052993 L0,4.51006686 M1.4134617,4.64466207 C1.4134617,2.86011956 2.86024744,1.4134617 4.64466207,1.4134617 L10.9707513,1.4134617 C12.7552803,1.4134617 14.2019247,2.86024744 14.2019247,4.64466207 L14.2019247,10.9707513 C14.2019247,12.7552803 12.7551457,14.2019247 10.9707513,14.2019247 L4.64466207,14.2019247 C2.86011956,14.2019247 1.4134617,12.7551457 1.4134617,10.9707513 L1.4134617,4.64466207" id="Shape"></path>
                                </g>
                                <g id="Group" transform="translate(26.528539, 135.528539)" fill="#FFFFFF">
                                    <path d="M3.9711543,7.9423086 C6.1643757,7.9423086 7.9423086,6.1643757 7.9423086,3.9711543 C7.9423086,1.77794636 6.1643757,0 3.9711543,0 C1.77794636,0 0,1.77794636 0,3.9711543 C0,6.1643757 1.77794636,7.9423086 3.9711543,7.9423086 M3.9711543,6.5288469 C5.383741,6.5288469 6.5288469,5.383741 6.5288469,3.9711543 C6.5288469,2.55858106 5.383741,1.4134617 3.9711543,1.4134617 C2.55858106,1.4134617 1.4134617,2.55858106 1.4134617,3.9711543 C1.4134617,5.383741 2.55858106,6.5288469 3.9711543,6.5288469" id="Shape"></path>
                                </g>
                                <g id="Group" transform="translate(33.663155, 134.384308)" fill="#FFFFFF">
                                    <path d="M1.8846156,0.9423078 C1.8846156,1.46273094 1.46273094,1.8846156 0.9423078,1.8846156 C0.421884664,1.8846156 0,1.46273094 0,0.9423078 C0,0.421884664 0.421884664,0 0.9423078,0 C1.46273094,0 1.8846156,0.421884664 1.8846156,0.9423078" id="Shape"></path>
                                </g>
                                <g id="Group" transform="translate(20.000000, 170.000000)" fill="#231F20">
                                    <path d="M1.0664056,0 L19.9335816,0 C20.5225656,0 20.9999872,0.477446193 20.9999872,1.0664056 L20.9999872,19.9335816 C20.9999872,20.5225656 20.5225656,20.9999872 19.9335816,20.9999872 L1.0664056,20.9999872 C0.477446193,20.9999872 0,20.5225656 0,19.9335816 L0,1.0664056 C0,0.477446193 0.477446193,0 1.0664056,0" id="Shape"></path>
                                </g>
                                <g id="Group" transform="translate(32.714401, 174.758000)" fill="#7F7F7F">
                                    <path d="M0.445921603,0.0612928103 C0.240105322,-0.041772748 0.0716952688,0.062456669 0.0716952688,0.292898962 L0.0716952688,9.46008408 L3.82823204,11.3409775 C4.24166929,11.5478601 4.57676674,11.402993 4.57676674,11.0174464 L4.57676674,2.18971624 C4.57676674,2.15286783 4.55584879,2.11898074 4.52295427,2.10242684 L0.445921603,0.0612928103" id="Shape"></path>
                                </g>
                                <g id="Group" transform="translate(28.202685, 174.758000)" fill="#ABACAD">
                                    <path d="M0.0784382334,7.20449678 L4.36414187,0.230697984 C4.48472774,0.0343948618 4.75182132,-0.041772748 4.9576376,0.0612928103 L9.03926402,2.10475653 C9.0657601,2.1180784 9.07519369,2.15118619 9.05968979,2.17640258 L4.58341127,9.46008408 L0.0784382334,7.20449678" id="Shape"></path>
                                </g>
                                <g id="Group" transform="translate(24.019094, 174.840031)" fill="#D8D8D8">
                                    <path d="M0.380692034,0.104182085 C0.0375637271,-0.0676804158 -0.0786629989,0.0594381669 0.122409418,0.386609764 L4.26202943,7.12246558 L8.76700247,9.37805288 L4.27171732,2.06319952 C4.26538451,2.05285539 4.25621342,2.04457844 4.2453689,2.03914798 L0.380692034,0.104182085" id="Shape"></path>
                                </g>
                                <g id="Group" transform="translate(23.773000, 174.758000)" fill="#FFFFFF">
                                    <path d="M4.50812303,11.0174464 C4.50812303,11.4015165 4.22737125,11.5751765 3.88436599,11.4034032 L0.377285278,9.64744334 C0.171433724,9.54433012 0.00303408799,9.27149435 0.00303408799,9.04106871 L0.00303408799,0.432562002 C0.00303408799,0.125304299 0.22761033,-0.0137110229 0.502035046,0.123753089 L4.4838418,2.1172991 C4.49869765,2.12480495 4.50812303,2.13993151 4.50812303,2.1564854 L4.50812303,11.0174464" id="Shape"></path>
                                </g>
                                <g id="social-networks" transform="translate(18.000000, 18.000000)">
                                    <rect id="Rectangle" fill-opacity="0.699999988" fill="#B3B3B3" x="62" y="36" width="76" height="9" rx="4.5"></rect>
                                    <rect id="Rectangle" fill-opacity="0.699999988" fill="#B3B3B3" x="62" y="77" width="76" height="9" rx="4.5"></rect>
                                    <rect id="Rectangle" fill-opacity="0.699999988" fill="#B3B3B3" x="62" y="118" width="76" height="9" rx="4.5"></rect>
                                    <rect id="Rectangle" fill-opacity="0.699999988" fill="#B3B3B3" x="62" y="159" width="76" height="9" rx="4.5"></rect>
                                    <rect id="Rectangle" fill-opacity="0.699999988" fill="#B3B3B3" x="305" y="77" width="41" height="9" rx="4.5"></rect>
                                    <rect id="Rectangle" fill-opacity="0.699999988" fill="#B3B3B3" x="305" y="36" width="41" height="9" rx="4.5"></rect>
                                    <rect id="Rectangle" fill="#52CA6F" x="305" y="118" width="41" height="9" rx="4.5"></rect>
                                    <rect id="Rectangle" fill-opacity="0.699999988" fill="#B3B3B3" x="305" y="159" width="41" height="9" rx="4.5"></rect>
                                    <rect id="Rectangle" fill-opacity="0.799999952" fill="#C9C9C9" x="33" y="77" width="20.0703125" height="9" rx="4.5"></rect>
                                    <rect id="Rectangle" fill-opacity="0.799999952" fill="#C9C9C9" x="33" y="36" width="20.0703125" height="9" rx="4.5"></rect>
                                    <rect id="Rectangle" fill-opacity="0.799999952" fill="#C9C9C9" x="33" y="118" width="20.0703125" height="9" rx="4.5"></rect>
                                    <rect id="Rectangle" fill-opacity="0.799999952" fill="#C9C9C9" x="33" y="159" width="20.0703125" height="9" rx="4.5"></rect>
                                    <rect id="Rectangle" fill="#B3B3B3" x="0" y="0" width="138" height="9" rx="4.5"></rect>
                                </g>
                            </g>
                        </g>
                        <g id="Group-2">
                            <g id="Group" stroke="#F5F5F5" fill="#FFFFFF">
                                <polygon id="Shape" points="435 0 435 73 0 73 0 0"></polygon>
                            </g>
                            <g id="Group" transform="translate(29.000000, 32.000000)" fill="#CCCCCC">
                                <path d="M12.5,11 L11.71,11 L11.43,10.73 C12.41,9.59 13,8.11 13,6.5 C13,2.91 10.09,0 6.5,0 C2.91,0 0,2.91 0,6.5 C0,10.09 2.91,13 6.5,13 C8.11,13 9.59,12.41 10.73,11.43 L11,11.71 L11,12.5 L16,17.49 L17.49,16 L12.5,11 M6.5,11 C4.01,11 2,8.99 2,6.5 C2,4.01 4.01,2 6.5,2 C8.99,2 11,4.01 11,6.5 C11,8.99 8.99,11 6.5,11" id="Shape"></path>
                            </g>
                        </g>
                        <g id="topone" transform="translate(24.000000, 96.000000)">
                            <g id="top-one" fill="#F5F5F5">
                                <path d="M381,0 C382.657,0 384,1.343 384,3 L384,253 C384,254.657 382.657,256 381,256 L3,256 C1.343,256 0,254.657 0,253 L0,3 C0,1.343 1.343,0 3,0 L381,0 Z" id="Shape"></path>
                            </g>
                            <g id="Group" transform="translate(19.000000, 88.000000)" fill-opacity="0.0392157" fill="#000000">
                                <polyline id="Shape" points="0 0 346 0 346 23 0 23 0 0"></polyline>
                            </g>
                            <g id="Group" transform="translate(12.000000, 80.000000)" fill="#FFFFFF">
                                <path d="M3,0 L357,0 C358.657,0 360,1.343 360,3 L360,34 C360,35.657 358.657,37 357,37 L3,37 C1.343,37 0,35.657 0,34 L0,3 C0,1.343 1.343,0 3,0" id="Shape"></path>
                            </g>
                            <g id="Group" transform="translate(19.000000, 129.000000)" fill-opacity="0.0392157" fill="#000000">
                                <polyline id="Shape" points="0 0 346 0 346 23 0 23 0 0"></polyline>
                            </g>
                            <g id="Group" transform="translate(12.000000, 121.000000)" fill="#FFFFFF">
                                <path d="M3,0 L357,0 C358.657,0 360,1.343 360,3 L360,34 C360,35.657 358.657,37 357,37 L3,37 C1.343,37 0,35.657 0,34 L0,3 C0,1.343 1.343,0 3,0" id="Shape"></path>
                            </g>
                            <g id="Group" transform="translate(19.000000, 170.000000)" fill-opacity="0.0392157" fill="#000000">
                                <polyline id="Shape" points="0 0 346 0 346 23 0 23 0 0"></polyline>
                            </g>
                            <g id="Group" transform="translate(12.000000, 162.000000)" fill="#FFFFFF">
                                <path d="M3,0 L357,0 C358.657,0 360,1.343 360,3 L360,34 C360,35.657 358.657,37 357,37 L3,37 C1.343,37 0,35.657 0,34 L0,3 C0,1.343 1.343,0 3,0" id="Shape"></path>
                            </g>
                            <g id="Group" transform="translate(19.000000, 211.000000)" fill-opacity="0.0392157" fill="#000000">
                                <polyline id="Shape" points="0 0 346 0 346 23 0 23 0 0"></polyline>
                            </g>
                            <g id="Group" transform="translate(12.000000, 203.000000)" fill="#FFFFFF">
                                <path d="M3,0 L357,0 C358.657,0 360,1.343 360,3 L360,34 C360,35.657 358.657,37 357,37 L3,37 C1.343,37 0,35.657 0,34 L0,3 C0,1.343 1.343,0 3,0" id="Shape"></path>
                            </g>
                            <g id="Group" transform="translate(136.000000, 88.000000)"></g>
                            <rect id="Rectangle" fill-opacity="0.900000036" fill="#3FC55F" x="323" y="95" width="41" height="9" rx="4.5"></rect>
                            <rect id="Rectangle" fill-opacity="0.900000036" fill="#3FC55F" x="323" y="218" width="41" height="9" rx="4.5"></rect>
                            <rect id="Rectangle" fill="#C6C6C6" x="323" y="54" width="41" height="9" rx="4.5"></rect>
                            <rect id="Rectangle" fill-opacity="0.900000036" fill="#3FC55F" x="323" y="136" width="41" height="9" rx="4.5"></rect>
                            <rect id="Rectangle" fill-opacity="0.900000036" fill="#3FC55F" x="323" y="177" width="41" height="9" rx="4.5"></rect>
                            <rect id="Rectangle" fill-opacity="0.5" fill="#B3B3B3" x="53" y="56" width="76" height="9" rx="4.5"></rect>
                            <rect id="Rectangle" fill-opacity="0.5" fill="#B3B3B3" x="53" y="97" width="76" height="9" rx="4.5"></rect>
                            <rect id="Rectangle" fill-opacity="0.5" fill="#B3B3B3" x="53" y="138" width="76" height="9" rx="4.5"></rect>
                            <rect id="Rectangle" fill-opacity="0.5" fill="#B3B3B3" x="53" y="179" width="76" height="9" rx="4.5"></rect>
                            <rect id="Rectangle" fill-opacity="0.5" fill="#B3B3B3" x="53" y="219" width="76" height="9" rx="4.5"></rect>
                            <rect id="Rectangle" fill-opacity="0.300000012" fill="#B3B3B3" x="138" y="97" width="41" height="9" rx="4.5"></rect>
                            <rect id="Rectangle" fill-opacity="0.300000012" fill="#B3B3B3" x="138" y="56" width="41" height="9" rx="4.5"></rect>
                            <rect id="Rectangle" fill-opacity="0.300000012" fill="#B3B3B3" x="138" y="138" width="41" height="9" rx="4.5"></rect>
                            <rect id="Rectangle" fill-opacity="0.300000012" fill="#B3B3B3" x="138" y="179" width="41" height="9" rx="4.5"></rect>
                            <rect id="Rectangle" fill-opacity="0.300000012" fill="#B3B3B3" x="138" y="219" width="41" height="9" rx="4.5"></rect>
                            <rect id="Rectangle" fill="#C9C9C9" x="25" y="97" width="20.0703125" height="9" rx="4.5"></rect>
                            <rect id="Rectangle" fill="#C9C9C9" x="25" y="56" width="20.0703125" height="9" rx="4.5"></rect>
                            <rect id="Rectangle" fill="#C9C9C9" x="25" y="138" width="20.0703125" height="9" rx="4.5"></rect>
                            <rect id="Rectangle" fill="#C9C9C9" x="25" y="179" width="20.0703125" height="9" rx="4.5"></rect>
                            <rect id="Rectangle" fill="#C9C9C9" x="25" y="219" width="20.0703125" height="9" rx="4.5"></rect>
                            <rect id="Rectangle" fill="#B3B3B3" x="18" y="15" width="110" height="9" rx="4.5"></rect>
                        </g>
                        <g id="bottom-one" transform="translate(24.000000, 594.000000)">
                            <g id="top-one" fill="#F5F5F5">
                                <path d="M381,0 C382.657,0 384,1.343 384,3 L384,253 C384,254.657 382.657,256 381,256 L3,256 C1.343,256 0,254.657 0,253 L0,3 C0,1.343 1.343,0 3,0 L381,0 Z" id="Shape"></path>
                            </g>
                            <g id="Group" transform="translate(19.000000, 88.000000)" fill-opacity="0.0392157" fill="#000000">
                                <polyline id="Shape" points="0 0 346 0 346 23 0 23 0 0"></polyline>
                            </g>
                            <g id="Group" transform="translate(12.000000, 80.000000)" fill="#FFFFFF">
                                <path d="M3,0 L357,0 C358.657,0 360,1.343 360,3 L360,34 C360,35.657 358.657,37 357,37 L3,37 C1.343,37 0,35.657 0,34 L0,3 C0,1.343 1.343,0 3,0" id="Shape"></path>
                            </g>
                            <g id="Group" transform="translate(12.000000, 40.000000)" fill="#FFFFFF">
                                <path d="M3,0 L357,0 C358.657,0 360,1.343 360,3 L360,34 C360,35.657 358.657,37 357,37 L3,37 C1.343,37 0,35.657 0,34 L0,3 C0,1.343 1.343,0 3,0" id="Shape"></path>
                            </g>
                            <g id="Group" transform="translate(19.000000, 129.000000)" fill-opacity="0.0392157" fill="#000000">
                                <polyline id="Shape" points="0 0 346 0 346 23 0 23 0 0"></polyline>
                            </g>
                            <g id="Group" transform="translate(12.000000, 121.000000)" fill="#FFFFFF">
                                <path d="M3,0 L357,0 C358.657,0 360,1.343 360,3 L360,34 C360,35.657 358.657,37 357,37 L3,37 C1.343,37 0,35.657 0,34 L0,3 C0,1.343 1.343,0 3,0" id="Shape"></path>
                            </g>
                            <g id="Group" transform="translate(19.000000, 170.000000)" fill-opacity="0.0392157" fill="#000000">
                                <polyline id="Shape" points="0 0 346 0 346 23 0 23 0 0"></polyline>
                            </g>
                            <g id="Group" transform="translate(12.000000, 162.000000)" fill="#FFFFFF">
                                <path d="M3,0 L357,0 C358.657,0 360,1.343 360,3 L360,34 C360,35.657 358.657,37 357,37 L3,37 C1.343,37 0,35.657 0,34 L0,3 C0,1.343 1.343,0 3,0" id="Shape"></path>
                            </g>
                            <g id="Group" transform="translate(19.000000, 211.000000)" fill-opacity="0.0392157" fill="#000000">
                                <polyline id="Shape" points="0 0 346 0 346 23 0 23 0 0"></polyline>
                            </g>
                            <g id="Group" transform="translate(12.000000, 203.000000)" fill="#FFFFFF">
                                <path d="M3,0 L357,0 C358.657,0 360,1.343 360,3 L360,34 C360,35.657 358.657,37 357,37 L3,37 C1.343,37 0,35.657 0,34 L0,3 C0,1.343 1.343,0 3,0" id="Shape"></path>
                            </g>
                            <g id="Group" transform="translate(136.000000, 88.000000)"></g>
                            <rect id="Rectangle" fill-opacity="0.900000036" fill="#3FC55F" x="323" y="95" width="41" height="9" rx="4.5"></rect>
                            <rect id="Rectangle" fill-opacity="0.900000036" fill="#3FC55F" x="323" y="218" width="41" height="9" rx="4.5"></rect>
                            <rect id="Rectangle" fill="#52CA6F" x="323" y="54" width="41" height="9" rx="4.5"></rect>
                            <rect id="Rectangle" fill-opacity="0.900000036" fill="#3FC55F" x="323" y="136" width="41" height="9" rx="4.5"></rect>
                            <rect id="Rectangle" fill-opacity="0.900000036" fill="#3FC55F" x="323" y="177" width="41" height="9" rx="4.5"></rect>
                            <rect id="Rectangle" fill-opacity="0.5" fill="#B3B3B3" x="53" y="56" width="76" height="9" rx="4.5"></rect>
                            <rect id="Rectangle" fill-opacity="0.5" fill="#B3B3B3" x="53" y="97" width="76" height="9" rx="4.5"></rect>
                            <rect id="Rectangle" fill-opacity="0.5" fill="#B3B3B3" x="53" y="138" width="76" height="9" rx="4.5"></rect>
                            <rect id="Rectangle" fill-opacity="0.5" fill="#B3B3B3" x="53" y="179" width="76" height="9" rx="4.5"></rect>
                            <rect id="Rectangle" fill-opacity="0.5" fill="#B3B3B3" x="53" y="219" width="76" height="9" rx="4.5"></rect>
                            <rect id="Rectangle" fill-opacity="0.300000012" fill="#B3B3B3" x="138" y="97" width="41" height="9" rx="4.5"></rect>
                            <rect id="Rectangle" fill-opacity="0.300000012" fill="#B3B3B3" x="138" y="56" width="41" height="9" rx="4.5"></rect>
                            <rect id="Rectangle" fill-opacity="0.300000012" fill="#B3B3B3" x="138" y="138" width="41" height="9" rx="4.5"></rect>
                            <rect id="Rectangle" fill-opacity="0.300000012" fill="#B3B3B3" x="138" y="179" width="41" height="9" rx="4.5"></rect>
                            <rect id="Rectangle" fill-opacity="0.300000012" fill="#B3B3B3" x="138" y="219" width="41" height="9" rx="4.5"></rect>
                            <rect id="Rectangle" fill="#C9C9C9" x="25" y="97" width="20.0703125" height="9" rx="4.5"></rect>
                            <rect id="Rectangle" fill="#C9C9C9" x="25" y="56" width="20.0703125" height="9" rx="4.5"></rect>
                            <rect id="Rectangle" fill="#C9C9C9" x="25" y="138" width="20.0703125" height="9" rx="4.5"></rect>
                            <rect id="Rectangle" fill="#C9C9C9" x="25" y="179" width="20.0703125" height="9" rx="4.5"></rect>
                            <rect id="Rectangle" fill="#C9C9C9" x="25" y="219" width="20.0703125" height="9" rx="4.5"></rect>
                            <rect id="Rectangle" fill="#B3B3B3" x="18" y="15" width="110" height="9" rx="4.5"></rect>
                        </g>
                    </g>
                </g>
            </g>
            <g id="default-tlds" transform="translate(59.000000, 29.000000)" fill="#B3B3B3" fill-opacity="0.699999988">
                <rect id="Rectangle" x="0" y="0" width="123" height="13" rx="6.5"></rect>
            </g>
        </g>
    </g>
</svg>